<mxfile host="Electron" modified="2023-09-26T10:58:35.880Z" agent="Mozilla/5.0 (Macintosh; Intel Mac OS X 10_15_7) AppleWebKit/537.36 (KHTML, like Gecko) draw.io/21.6.8 Chrome/114.0.5735.289 Electron/25.5.0 Safari/537.36" etag="zjOwDkOlV23rMMSLD__i" version="21.6.8" type="device" pages="4">
  <diagram name="dipendenza due" id="X4vW8zOaaurs1oRRGQ_6">
    <mxGraphModel dx="1026" dy="2342" grid="1" gridSize="10" guides="1" tooltips="1" connect="1" arrows="1" fold="1" page="1" pageScale="1" pageWidth="1169" pageHeight="1654" math="0" shadow="0">
      <root>
        <mxCell id="0" />
        <mxCell id="1" parent="0" />
        <mxCell id="HHp6l9n1hsnYG9AmwVGV-3" value="" style="edgeStyle=orthogonalEdgeStyle;rounded=0;orthogonalLoop=1;jettySize=auto;html=1;labelPosition=center;verticalLabelPosition=middle;align=center;verticalAlign=middle;fontColor=#000000;fontSize=14;" parent="1" source="HHp6l9n1hsnYG9AmwVGV-1" target="HHp6l9n1hsnYG9AmwVGV-2" edge="1">
          <mxGeometry relative="1" as="geometry" />
        </mxCell>
        <mxCell id="HHp6l9n1hsnYG9AmwVGV-1" value="P0" style="ellipse;whiteSpace=wrap;html=1;aspect=fixed;labelPosition=center;verticalLabelPosition=middle;align=center;verticalAlign=middle;fontColor=#000000;fontSize=14;strokeWidth=1;" parent="1" vertex="1">
          <mxGeometry y="240" width="40" height="40" as="geometry" />
        </mxCell>
        <mxCell id="HHp6l9n1hsnYG9AmwVGV-8" value="" style="edgeStyle=orthogonalEdgeStyle;rounded=0;orthogonalLoop=1;jettySize=auto;html=1;labelPosition=center;verticalLabelPosition=middle;align=center;verticalAlign=middle;fontColor=#000000;fontSize=14;" parent="1" source="HHp6l9n1hsnYG9AmwVGV-2" target="HHp6l9n1hsnYG9AmwVGV-5" edge="1">
          <mxGeometry relative="1" as="geometry" />
        </mxCell>
        <mxCell id="HHp6l9n1hsnYG9AmwVGV-2" value="&lt;b style=&quot;font-size: 14px;&quot;&gt;PH&lt;/b&gt;" style="whiteSpace=wrap;html=1;aspect=fixed;labelPosition=center;verticalLabelPosition=middle;align=center;verticalAlign=middle;fontColor=#000000;fontSize=14;strokeWidth=1;" parent="1" vertex="1">
          <mxGeometry x="70" y="240" width="40" height="40" as="geometry" />
        </mxCell>
        <mxCell id="HHp6l9n1hsnYG9AmwVGV-4" value="P2" style="ellipse;whiteSpace=wrap;html=1;aspect=fixed;labelPosition=center;verticalLabelPosition=middle;align=center;verticalAlign=middle;fontColor=#000000;fontSize=14;strokeWidth=1;" parent="1" vertex="1">
          <mxGeometry x="130" y="310" width="40" height="40" as="geometry" />
        </mxCell>
        <mxCell id="HHp6l9n1hsnYG9AmwVGV-10" value="" style="edgeStyle=orthogonalEdgeStyle;rounded=0;orthogonalLoop=1;jettySize=auto;html=1;labelPosition=center;verticalLabelPosition=middle;align=center;verticalAlign=middle;fontColor=#000000;fontSize=14;" parent="1" source="HHp6l9n1hsnYG9AmwVGV-5" target="HHp6l9n1hsnYG9AmwVGV-9" edge="1">
          <mxGeometry relative="1" as="geometry" />
        </mxCell>
        <mxCell id="HHp6l9n1hsnYG9AmwVGV-5" value="P1" style="ellipse;whiteSpace=wrap;html=1;aspect=fixed;labelPosition=center;verticalLabelPosition=middle;align=center;verticalAlign=middle;fontColor=#000000;fontSize=14;strokeWidth=1;" parent="1" vertex="1">
          <mxGeometry x="130" y="240" width="40" height="40" as="geometry" />
        </mxCell>
        <mxCell id="HHp6l9n1hsnYG9AmwVGV-6" value="" style="endArrow=classic;html=1;rounded=0;exitX=1;exitY=1;exitDx=0;exitDy=0;entryX=0;entryY=0;entryDx=0;entryDy=0;labelPosition=center;verticalLabelPosition=middle;align=center;verticalAlign=middle;fontColor=#000000;fontSize=14;" parent="1" source="HHp6l9n1hsnYG9AmwVGV-2" target="HHp6l9n1hsnYG9AmwVGV-4" edge="1">
          <mxGeometry width="50" height="50" relative="1" as="geometry">
            <mxPoint x="330" y="290" as="sourcePoint" />
            <mxPoint x="380" y="240" as="targetPoint" />
          </mxGeometry>
        </mxCell>
        <mxCell id="HHp6l9n1hsnYG9AmwVGV-9" value="&lt;b style=&quot;font-size: 14px;&quot;&gt;COPA&lt;/b&gt;" style="whiteSpace=wrap;html=1;aspect=fixed;labelPosition=center;verticalLabelPosition=middle;align=center;verticalAlign=middle;fontColor=#000000;fontSize=14;strokeWidth=1;" parent="1" vertex="1">
          <mxGeometry x="200" y="240" width="40" height="40" as="geometry" />
        </mxCell>
        <mxCell id="y9ymkbr7k5azt2smzUeP-1" value="P4" style="ellipse;whiteSpace=wrap;html=1;aspect=fixed;labelPosition=center;verticalLabelPosition=middle;align=center;verticalAlign=middle;fontColor=#000000;fontSize=14;strokeWidth=1;" parent="1" vertex="1">
          <mxGeometry x="260" y="310" width="40" height="40" as="geometry" />
        </mxCell>
        <mxCell id="y9ymkbr7k5azt2smzUeP-2" value="P3" style="ellipse;whiteSpace=wrap;html=1;aspect=fixed;labelPosition=center;verticalLabelPosition=middle;align=center;verticalAlign=middle;fontColor=#000000;fontSize=14;strokeWidth=1;" parent="1" vertex="1">
          <mxGeometry x="260" y="190" width="40" height="40" as="geometry" />
        </mxCell>
        <mxCell id="y9ymkbr7k5azt2smzUeP-10" style="edgeStyle=orthogonalEdgeStyle;rounded=0;orthogonalLoop=1;jettySize=auto;html=1;entryX=0.5;entryY=1;entryDx=0;entryDy=0;labelPosition=center;verticalLabelPosition=middle;align=center;verticalAlign=middle;exitX=0.75;exitY=0;exitDx=0;exitDy=0;fontColor=#000000;fontSize=14;" parent="1" source="y9ymkbr7k5azt2smzUeP-3" target="y9ymkbr7k5azt2smzUeP-7" edge="1">
          <mxGeometry relative="1" as="geometry">
            <mxPoint x="330" y="240" as="sourcePoint" />
            <Array as="points">
              <mxPoint x="340" y="180" />
              <mxPoint x="110" y="180" />
              <mxPoint x="110" y="60" />
              <mxPoint x="70" y="60" />
            </Array>
          </mxGeometry>
        </mxCell>
        <mxCell id="y9ymkbr7k5azt2smzUeP-3" value="&lt;b style=&quot;font-size: 14px;&quot;&gt;OD&lt;/b&gt;" style="whiteSpace=wrap;html=1;aspect=fixed;labelPosition=center;verticalLabelPosition=middle;align=center;verticalAlign=middle;fontColor=#000000;fontSize=14;strokeWidth=1;" parent="1" vertex="1">
          <mxGeometry x="310" y="240" width="40" height="40" as="geometry" />
        </mxCell>
        <mxCell id="y9ymkbr7k5azt2smzUeP-4" value="" style="endArrow=classic;html=1;rounded=0;entryX=0;entryY=1;entryDx=0;entryDy=0;exitX=1;exitY=0;exitDx=0;exitDy=0;labelPosition=center;verticalLabelPosition=middle;align=center;verticalAlign=middle;fontColor=#000000;fontSize=14;" parent="1" source="HHp6l9n1hsnYG9AmwVGV-9" target="y9ymkbr7k5azt2smzUeP-2" edge="1">
          <mxGeometry width="50" height="50" relative="1" as="geometry">
            <mxPoint x="270" y="240" as="sourcePoint" />
            <mxPoint x="320" y="190" as="targetPoint" />
          </mxGeometry>
        </mxCell>
        <mxCell id="y9ymkbr7k5azt2smzUeP-5" value="" style="endArrow=classic;html=1;rounded=0;exitX=1;exitY=1;exitDx=0;exitDy=0;entryX=0;entryY=0;entryDx=0;entryDy=0;labelPosition=center;verticalLabelPosition=middle;align=center;verticalAlign=middle;fontColor=#000000;fontSize=14;" parent="1" source="HHp6l9n1hsnYG9AmwVGV-9" target="y9ymkbr7k5azt2smzUeP-1" edge="1">
          <mxGeometry width="50" height="50" relative="1" as="geometry">
            <mxPoint x="300" y="290" as="sourcePoint" />
            <mxPoint x="350" y="240" as="targetPoint" />
          </mxGeometry>
        </mxCell>
        <mxCell id="y9ymkbr7k5azt2smzUeP-6" value="" style="endArrow=classic;html=1;rounded=0;exitX=1;exitY=0.5;exitDx=0;exitDy=0;entryX=0;entryY=0.5;entryDx=0;entryDy=0;labelPosition=center;verticalLabelPosition=middle;align=center;verticalAlign=middle;fontColor=#000000;fontSize=14;" parent="1" source="HHp6l9n1hsnYG9AmwVGV-4" target="y9ymkbr7k5azt2smzUeP-3" edge="1">
          <mxGeometry width="50" height="50" relative="1" as="geometry">
            <mxPoint x="370" y="340" as="sourcePoint" />
            <mxPoint x="420" y="290" as="targetPoint" />
            <Array as="points">
              <mxPoint x="220" y="330" />
              <mxPoint x="270" y="260" />
              <mxPoint x="300" y="260" />
            </Array>
          </mxGeometry>
        </mxCell>
        <mxCell id="h5VOHFV0B111vVuhWzqz-17" style="edgeStyle=orthogonalEdgeStyle;rounded=0;orthogonalLoop=1;jettySize=auto;html=1;entryX=0;entryY=0.5;entryDx=0;entryDy=0;labelPosition=center;verticalLabelPosition=middle;align=center;verticalAlign=middle;fontColor=#000000;strokeColor=#006EAF;fontSize=14;" parent="1" source="y9ymkbr7k5azt2smzUeP-7" target="nuuUv_DU9fzOyV3LUxx7-2" edge="1">
          <mxGeometry relative="1" as="geometry" />
        </mxCell>
        <mxCell id="y9ymkbr7k5azt2smzUeP-7" value="P5" style="ellipse;whiteSpace=wrap;html=1;aspect=fixed;labelPosition=center;verticalLabelPosition=middle;align=center;verticalAlign=middle;fillColor=none;fontColor=#000000;strokeColor=#006EAF;labelBackgroundColor=none;labelBorderColor=none;strokeWidth=2;fontSize=14;" parent="1" vertex="1">
          <mxGeometry x="50" width="40" height="40" as="geometry" />
        </mxCell>
        <mxCell id="y9ymkbr7k5azt2smzUeP-8" value="P6" style="ellipse;whiteSpace=wrap;html=1;aspect=fixed;labelPosition=center;verticalLabelPosition=middle;align=center;verticalAlign=middle;fontColor=#000000;fontSize=14;strokeWidth=1;" parent="1" vertex="1">
          <mxGeometry x="50" y="80" width="40" height="40" as="geometry" />
        </mxCell>
        <mxCell id="y9ymkbr7k5azt2smzUeP-16" style="edgeStyle=orthogonalEdgeStyle;rounded=0;orthogonalLoop=1;jettySize=auto;html=1;labelPosition=center;verticalLabelPosition=middle;align=center;verticalAlign=middle;fontColor=#000000;fontSize=14;" parent="1" source="y9ymkbr7k5azt2smzUeP-9" target="y9ymkbr7k5azt2smzUeP-15" edge="1">
          <mxGeometry relative="1" as="geometry" />
        </mxCell>
        <mxCell id="y9ymkbr7k5azt2smzUeP-9" value="&lt;b style=&quot;font-size: 14px;&quot;&gt;RD&lt;/b&gt;" style="whiteSpace=wrap;html=1;aspect=fixed;labelPosition=center;verticalLabelPosition=middle;align=center;verticalAlign=middle;fontColor=#000000;fontSize=14;strokeWidth=1;" parent="1" vertex="1">
          <mxGeometry x="400" y="240" width="40" height="40" as="geometry" />
        </mxCell>
        <mxCell id="y9ymkbr7k5azt2smzUeP-11" value="" style="endArrow=classic;html=1;rounded=0;exitX=0.25;exitY=0;exitDx=0;exitDy=0;entryX=0.5;entryY=1;entryDx=0;entryDy=0;labelPosition=center;verticalLabelPosition=middle;align=center;verticalAlign=middle;fontColor=#000000;fontSize=14;" parent="1" source="y9ymkbr7k5azt2smzUeP-3" target="y9ymkbr7k5azt2smzUeP-8" edge="1">
          <mxGeometry width="50" height="50" relative="1" as="geometry">
            <mxPoint x="110" y="380" as="sourcePoint" />
            <mxPoint x="160" y="330" as="targetPoint" />
            <Array as="points">
              <mxPoint x="320" y="160" />
              <mxPoint x="70" y="160" />
            </Array>
          </mxGeometry>
        </mxCell>
        <mxCell id="y9ymkbr7k5azt2smzUeP-18" style="edgeStyle=orthogonalEdgeStyle;rounded=0;orthogonalLoop=1;jettySize=auto;html=1;labelPosition=center;verticalLabelPosition=middle;align=center;verticalAlign=middle;fontColor=#000000;fontSize=14;" parent="1" source="y9ymkbr7k5azt2smzUeP-15" target="y9ymkbr7k5azt2smzUeP-17" edge="1">
          <mxGeometry relative="1" as="geometry" />
        </mxCell>
        <mxCell id="y9ymkbr7k5azt2smzUeP-15" value="P12" style="ellipse;whiteSpace=wrap;html=1;aspect=fixed;labelPosition=center;verticalLabelPosition=middle;align=center;verticalAlign=middle;fontColor=#000000;fontSize=14;strokeWidth=1;" parent="1" vertex="1">
          <mxGeometry x="470" y="240" width="40" height="40" as="geometry" />
        </mxCell>
        <mxCell id="y9ymkbr7k5azt2smzUeP-17" value="&lt;b style=&quot;font-size: 14px;&quot;&gt;AD&lt;/b&gt;" style="whiteSpace=wrap;html=1;aspect=fixed;labelPosition=center;verticalLabelPosition=middle;align=center;verticalAlign=middle;fontColor=#000000;fontSize=14;strokeWidth=1;" parent="1" vertex="1">
          <mxGeometry x="530" y="240" width="40" height="40" as="geometry" />
        </mxCell>
        <mxCell id="y9ymkbr7k5azt2smzUeP-20" value="" style="endArrow=classic;html=1;rounded=0;entryX=0;entryY=1;entryDx=0;entryDy=0;exitX=1;exitY=0;exitDx=0;exitDy=0;labelPosition=center;verticalLabelPosition=middle;align=center;verticalAlign=middle;fontColor=#000000;fontSize=14;" parent="1" source="y9ymkbr7k5azt2smzUeP-1" target="y9ymkbr7k5azt2smzUeP-3" edge="1">
          <mxGeometry width="50" height="50" relative="1" as="geometry">
            <mxPoint x="294" y="316" as="sourcePoint" />
            <mxPoint x="276" y="326" as="targetPoint" />
          </mxGeometry>
        </mxCell>
        <mxCell id="y9ymkbr7k5azt2smzUeP-30" style="edgeStyle=orthogonalEdgeStyle;rounded=0;orthogonalLoop=1;jettySize=auto;html=1;labelPosition=center;verticalLabelPosition=middle;align=center;verticalAlign=middle;fontColor=#000000;fontSize=14;" parent="1" source="y9ymkbr7k5azt2smzUeP-21" target="y9ymkbr7k5azt2smzUeP-26" edge="1">
          <mxGeometry relative="1" as="geometry" />
        </mxCell>
        <mxCell id="y9ymkbr7k5azt2smzUeP-21" value="P14" style="ellipse;whiteSpace=wrap;html=1;aspect=fixed;labelPosition=center;verticalLabelPosition=middle;align=center;verticalAlign=middle;fontColor=#000000;fontSize=14;strokeWidth=1;" parent="1" vertex="1">
          <mxGeometry x="600" y="300" width="40" height="40" as="geometry" />
        </mxCell>
        <mxCell id="y9ymkbr7k5azt2smzUeP-29" style="edgeStyle=orthogonalEdgeStyle;rounded=0;orthogonalLoop=1;jettySize=auto;html=1;entryX=0;entryY=0.5;entryDx=0;entryDy=0;labelPosition=center;verticalLabelPosition=middle;align=center;verticalAlign=middle;fontColor=#000000;fontSize=14;" parent="1" source="y9ymkbr7k5azt2smzUeP-22" target="y9ymkbr7k5azt2smzUeP-27" edge="1">
          <mxGeometry relative="1" as="geometry" />
        </mxCell>
        <mxCell id="y9ymkbr7k5azt2smzUeP-22" value="P13" style="ellipse;whiteSpace=wrap;html=1;aspect=fixed;labelPosition=center;verticalLabelPosition=middle;align=center;verticalAlign=middle;fontColor=#000000;fontSize=14;strokeWidth=1;" parent="1" vertex="1">
          <mxGeometry x="600" y="200" width="40" height="40" as="geometry" />
        </mxCell>
        <mxCell id="y9ymkbr7k5azt2smzUeP-25" value="" style="endArrow=classic;html=1;rounded=0;exitX=1;exitY=1;exitDx=0;exitDy=0;entryX=0;entryY=0;entryDx=0;entryDy=0;labelPosition=center;verticalLabelPosition=middle;align=center;verticalAlign=middle;fontColor=#000000;fontSize=14;" parent="1" source="y9ymkbr7k5azt2smzUeP-17" target="y9ymkbr7k5azt2smzUeP-21" edge="1">
          <mxGeometry width="50" height="50" relative="1" as="geometry">
            <mxPoint x="380" y="380" as="sourcePoint" />
            <mxPoint x="430" y="330" as="targetPoint" />
          </mxGeometry>
        </mxCell>
        <mxCell id="y9ymkbr7k5azt2smzUeP-26" value="&lt;b style=&quot;font-size: 14px;&quot;&gt;PRTA&lt;/b&gt;" style="whiteSpace=wrap;html=1;aspect=fixed;labelPosition=center;verticalLabelPosition=middle;align=center;verticalAlign=middle;fontColor=#000000;fontSize=14;strokeWidth=1;" parent="1" vertex="1">
          <mxGeometry x="670" y="300" width="40" height="40" as="geometry" />
        </mxCell>
        <mxCell id="y9ymkbr7k5azt2smzUeP-27" value="&lt;b style=&quot;font-size: 14px;&quot;&gt;TP&lt;/b&gt;" style="whiteSpace=wrap;html=1;aspect=fixed;labelPosition=center;verticalLabelPosition=middle;align=center;verticalAlign=middle;fontColor=#000000;fontSize=14;strokeWidth=1;" parent="1" vertex="1">
          <mxGeometry x="670" y="200" width="40" height="40" as="geometry" />
        </mxCell>
        <mxCell id="y9ymkbr7k5azt2smzUeP-31" value="P18" style="ellipse;whiteSpace=wrap;html=1;aspect=fixed;labelPosition=center;verticalLabelPosition=middle;align=center;verticalAlign=middle;fontColor=#000000;fontSize=14;strokeWidth=1;" parent="1" vertex="1">
          <mxGeometry x="740" y="230" width="40" height="40" as="geometry" />
        </mxCell>
        <mxCell id="y9ymkbr7k5azt2smzUeP-32" value="P17" style="ellipse;whiteSpace=wrap;html=1;aspect=fixed;labelPosition=center;verticalLabelPosition=middle;align=center;verticalAlign=middle;fontColor=#000000;fontSize=14;strokeWidth=1;" parent="1" vertex="1">
          <mxGeometry x="740" y="170" width="40" height="40" as="geometry" />
        </mxCell>
        <mxCell id="y9ymkbr7k5azt2smzUeP-33" value="P15" style="ellipse;whiteSpace=wrap;html=1;aspect=fixed;labelPosition=center;verticalLabelPosition=middle;align=center;verticalAlign=middle;fontColor=#000000;fontSize=14;strokeWidth=1;" parent="1" vertex="1">
          <mxGeometry x="740" y="300" width="40" height="40" as="geometry" />
        </mxCell>
        <mxCell id="y9ymkbr7k5azt2smzUeP-41" style="edgeStyle=orthogonalEdgeStyle;rounded=0;orthogonalLoop=1;jettySize=auto;html=1;labelPosition=center;verticalLabelPosition=middle;align=center;verticalAlign=middle;fontColor=#000000;fontSize=14;" parent="1" source="y9ymkbr7k5azt2smzUeP-34" target="y9ymkbr7k5azt2smzUeP-40" edge="1">
          <mxGeometry relative="1" as="geometry" />
        </mxCell>
        <mxCell id="y9ymkbr7k5azt2smzUeP-34" value="P16" style="ellipse;whiteSpace=wrap;html=1;aspect=fixed;labelPosition=center;verticalLabelPosition=middle;align=center;verticalAlign=middle;fontColor=#000000;fontSize=14;strokeWidth=1;" parent="1" vertex="1">
          <mxGeometry x="740" y="350" width="40" height="40" as="geometry" />
        </mxCell>
        <mxCell id="y9ymkbr7k5azt2smzUeP-37" value="" style="endArrow=classic;html=1;rounded=0;exitX=1;exitY=0.75;exitDx=0;exitDy=0;entryX=0;entryY=0.35;entryDx=0;entryDy=0;entryPerimeter=0;labelPosition=center;verticalLabelPosition=middle;align=center;verticalAlign=middle;fontColor=#000000;fontSize=14;" parent="1" source="y9ymkbr7k5azt2smzUeP-26" target="y9ymkbr7k5azt2smzUeP-34" edge="1">
          <mxGeometry width="50" height="50" relative="1" as="geometry">
            <mxPoint x="665" y="455" as="sourcePoint" />
            <mxPoint x="715" y="405" as="targetPoint" />
          </mxGeometry>
        </mxCell>
        <mxCell id="y9ymkbr7k5azt2smzUeP-38" value="" style="endArrow=classic;html=1;rounded=0;exitX=1;exitY=0.25;exitDx=0;exitDy=0;labelPosition=center;verticalLabelPosition=middle;align=center;verticalAlign=middle;entryX=0;entryY=0.5;entryDx=0;entryDy=0;fontColor=#000000;fontSize=14;" parent="1" source="y9ymkbr7k5azt2smzUeP-27" target="y9ymkbr7k5azt2smzUeP-32" edge="1">
          <mxGeometry width="50" height="50" relative="1" as="geometry">
            <mxPoint x="660" y="210" as="sourcePoint" />
            <mxPoint x="740" y="200" as="targetPoint" />
          </mxGeometry>
        </mxCell>
        <mxCell id="y9ymkbr7k5azt2smzUeP-39" value="&lt;b style=&quot;font-size: 14px;&quot;&gt;DPH&lt;br style=&quot;font-size: 14px;&quot;&gt;&lt;/b&gt;" style="whiteSpace=wrap;html=1;aspect=fixed;labelPosition=center;verticalLabelPosition=middle;align=center;verticalAlign=middle;fontColor=#000000;fontSize=14;strokeWidth=1;" parent="1" vertex="1">
          <mxGeometry x="1100" y="240" width="40" height="40" as="geometry" />
        </mxCell>
        <mxCell id="y9ymkbr7k5azt2smzUeP-40" value="&lt;b style=&quot;font-size: 14px;&quot;&gt;PCD&lt;/b&gt;" style="whiteSpace=wrap;html=1;aspect=fixed;labelPosition=center;verticalLabelPosition=middle;align=center;verticalAlign=middle;fontColor=#000000;fontSize=14;strokeWidth=1;" parent="1" vertex="1">
          <mxGeometry x="1246" y="180" width="40" height="40" as="geometry" />
        </mxCell>
        <mxCell id="y9ymkbr7k5azt2smzUeP-56" style="edgeStyle=orthogonalEdgeStyle;rounded=0;orthogonalLoop=1;jettySize=auto;html=1;labelPosition=center;verticalLabelPosition=middle;align=center;verticalAlign=middle;fontColor=#000000;fontSize=14;" parent="1" source="y9ymkbr7k5azt2smzUeP-43" target="y9ymkbr7k5azt2smzUeP-50" edge="1">
          <mxGeometry relative="1" as="geometry" />
        </mxCell>
        <mxCell id="y9ymkbr7k5azt2smzUeP-43" value="&lt;b style=&quot;font-size: 14px;&quot;&gt;RPB&lt;br style=&quot;font-size: 14px;&quot;&gt;&lt;/b&gt;" style="whiteSpace=wrap;html=1;aspect=fixed;labelPosition=center;verticalLabelPosition=middle;align=center;verticalAlign=middle;fontColor=#000000;fontSize=14;strokeWidth=1;" parent="1" vertex="1">
          <mxGeometry x="910" y="180" width="40" height="40" as="geometry" />
        </mxCell>
        <mxCell id="y9ymkbr7k5azt2smzUeP-45" value="" style="endArrow=classic;html=1;rounded=0;entryX=0;entryY=0.5;entryDx=0;entryDy=0;exitX=1;exitY=0.5;exitDx=0;exitDy=0;labelPosition=center;verticalLabelPosition=middle;align=center;verticalAlign=middle;fontColor=#000000;fontSize=14;" parent="1" source="y9ymkbr7k5azt2smzUeP-51" target="y9ymkbr7k5azt2smzUeP-39" edge="1">
          <mxGeometry width="50" height="50" relative="1" as="geometry">
            <mxPoint x="966" y="220" as="sourcePoint" />
            <mxPoint x="1066" y="230" as="targetPoint" />
          </mxGeometry>
        </mxCell>
        <mxCell id="y9ymkbr7k5azt2smzUeP-46" value="" style="endArrow=classic;html=1;rounded=0;exitX=1;exitY=0.5;exitDx=0;exitDy=0;entryX=0;entryY=1;entryDx=0;entryDy=0;labelPosition=center;verticalLabelPosition=middle;align=center;verticalAlign=middle;fontColor=#000000;fontSize=14;" parent="1" source="y9ymkbr7k5azt2smzUeP-33" target="y9ymkbr7k5azt2smzUeP-39" edge="1">
          <mxGeometry width="50" height="50" relative="1" as="geometry">
            <mxPoint x="1040" y="350" as="sourcePoint" />
            <mxPoint x="1090" y="300" as="targetPoint" />
            <Array as="points">
              <mxPoint x="1020" y="320" />
              <mxPoint x="1040" y="320" />
            </Array>
          </mxGeometry>
        </mxCell>
        <mxCell id="y9ymkbr7k5azt2smzUeP-50" value="P28" style="ellipse;whiteSpace=wrap;html=1;aspect=fixed;labelPosition=center;verticalLabelPosition=middle;align=center;verticalAlign=middle;fontColor=#000000;fontSize=14;strokeWidth=1;" parent="1" vertex="1">
          <mxGeometry x="986" y="180" width="40" height="40" as="geometry" />
        </mxCell>
        <mxCell id="y9ymkbr7k5azt2smzUeP-51" value="P29" style="ellipse;whiteSpace=wrap;html=1;aspect=fixed;labelPosition=center;verticalLabelPosition=middle;align=center;verticalAlign=middle;fontColor=#000000;fontSize=14;strokeWidth=1;" parent="1" vertex="1">
          <mxGeometry x="986" y="240" width="40" height="40" as="geometry" />
        </mxCell>
        <mxCell id="y9ymkbr7k5azt2smzUeP-54" style="edgeStyle=orthogonalEdgeStyle;rounded=0;orthogonalLoop=1;jettySize=auto;html=1;labelPosition=center;verticalLabelPosition=middle;align=center;verticalAlign=middle;fontColor=#000000;fontSize=14;" parent="1" source="y9ymkbr7k5azt2smzUeP-52" target="y9ymkbr7k5azt2smzUeP-53" edge="1">
          <mxGeometry relative="1" as="geometry" />
        </mxCell>
        <mxCell id="y9ymkbr7k5azt2smzUeP-52" value="&lt;b style=&quot;font-size: 14px;&quot;&gt;DP&lt;br style=&quot;font-size: 14px;&quot;&gt;&lt;/b&gt;" style="whiteSpace=wrap;html=1;aspect=fixed;labelPosition=center;verticalLabelPosition=middle;align=center;verticalAlign=middle;fontColor=#000000;fontSize=14;strokeWidth=1;" parent="1" vertex="1">
          <mxGeometry x="1286" y="280" width="40" height="40" as="geometry" />
        </mxCell>
        <mxCell id="y9ymkbr7k5azt2smzUeP-53" value="P32" style="ellipse;whiteSpace=wrap;html=1;aspect=fixed;labelPosition=center;verticalLabelPosition=middle;align=center;verticalAlign=middle;fontColor=#000000;fontSize=14;strokeWidth=1;" parent="1" vertex="1">
          <mxGeometry x="1356" y="280" width="40" height="40" as="geometry" />
        </mxCell>
        <mxCell id="y9ymkbr7k5azt2smzUeP-55" value="" style="endArrow=classic;html=1;rounded=0;exitX=1;exitY=1;exitDx=0;exitDy=0;entryX=0;entryY=0;entryDx=0;entryDy=0;labelPosition=center;verticalLabelPosition=middle;align=center;verticalAlign=middle;fontColor=#000000;fontSize=14;" parent="1" source="y9ymkbr7k5azt2smzUeP-43" target="y9ymkbr7k5azt2smzUeP-51" edge="1">
          <mxGeometry width="50" height="50" relative="1" as="geometry">
            <mxPoint x="1116" y="220" as="sourcePoint" />
            <mxPoint x="1166" y="170" as="targetPoint" />
          </mxGeometry>
        </mxCell>
        <mxCell id="y9ymkbr7k5azt2smzUeP-57" value="P30" style="ellipse;whiteSpace=wrap;html=1;aspect=fixed;labelPosition=center;verticalLabelPosition=middle;align=center;verticalAlign=middle;fontColor=#000000;fontSize=14;strokeWidth=1;" parent="1" vertex="1">
          <mxGeometry x="1160" y="280" width="40" height="40" as="geometry" />
        </mxCell>
        <mxCell id="y9ymkbr7k5azt2smzUeP-59" value="P31" style="ellipse;whiteSpace=wrap;html=1;aspect=fixed;labelPosition=center;verticalLabelPosition=middle;align=center;verticalAlign=middle;fontColor=#000000;fontSize=14;strokeWidth=1;" parent="1" vertex="1">
          <mxGeometry x="1160" y="210" width="40" height="40" as="geometry" />
        </mxCell>
        <mxCell id="y9ymkbr7k5azt2smzUeP-60" value="" style="endArrow=classic;html=1;rounded=0;entryX=0;entryY=0.5;entryDx=0;entryDy=0;labelPosition=center;verticalLabelPosition=middle;align=center;verticalAlign=middle;exitX=1;exitY=0.25;exitDx=0;exitDy=0;fontColor=#000000;fontSize=14;" parent="1" source="y9ymkbr7k5azt2smzUeP-39" target="y9ymkbr7k5azt2smzUeP-59" edge="1">
          <mxGeometry width="50" height="50" relative="1" as="geometry">
            <mxPoint x="1140" y="280" as="sourcePoint" />
            <mxPoint x="1206" y="540" as="targetPoint" />
          </mxGeometry>
        </mxCell>
        <mxCell id="y9ymkbr7k5azt2smzUeP-61" value="" style="endArrow=classic;html=1;rounded=0;exitX=1;exitY=0.5;exitDx=0;exitDy=0;entryX=0;entryY=1;entryDx=0;entryDy=0;labelPosition=center;verticalLabelPosition=middle;align=center;verticalAlign=middle;fontColor=#000000;fontSize=14;" parent="1" source="y9ymkbr7k5azt2smzUeP-59" target="y9ymkbr7k5azt2smzUeP-40" edge="1">
          <mxGeometry width="50" height="50" relative="1" as="geometry">
            <mxPoint x="1216" y="570" as="sourcePoint" />
            <mxPoint x="1266" y="520" as="targetPoint" />
          </mxGeometry>
        </mxCell>
        <mxCell id="y9ymkbr7k5azt2smzUeP-63" value="" style="endArrow=classic;html=1;rounded=0;exitX=1;exitY=0.5;exitDx=0;exitDy=0;entryX=0;entryY=0.5;entryDx=0;entryDy=0;labelPosition=center;verticalLabelPosition=middle;align=center;verticalAlign=middle;fontColor=#000000;fontSize=14;" parent="1" source="y9ymkbr7k5azt2smzUeP-50" target="y9ymkbr7k5azt2smzUeP-40" edge="1">
          <mxGeometry width="50" height="50" relative="1" as="geometry">
            <mxPoint x="1186" y="220" as="sourcePoint" />
            <mxPoint x="1236" y="170" as="targetPoint" />
            <Array as="points">
              <mxPoint x="1086" y="200" />
              <mxPoint x="1146" y="200" />
            </Array>
          </mxGeometry>
        </mxCell>
        <mxCell id="nuuUv_DU9fzOyV3LUxx7-1" style="edgeStyle=orthogonalEdgeStyle;rounded=0;orthogonalLoop=1;jettySize=auto;html=1;entryX=0;entryY=0.5;entryDx=0;entryDy=0;labelPosition=center;verticalLabelPosition=middle;align=center;verticalAlign=middle;fontColor=#000000;strokeColor=#006EAF;fontSize=14;" parent="1" source="nuuUv_DU9fzOyV3LUxx7-2" target="nuuUv_DU9fzOyV3LUxx7-8" edge="1">
          <mxGeometry relative="1" as="geometry" />
        </mxCell>
        <mxCell id="nuuUv_DU9fzOyV3LUxx7-2" value="&lt;b style=&quot;font-size: 14px;&quot;&gt;DOR&lt;/b&gt;" style="html=1;aspect=fixed;labelPosition=center;verticalLabelPosition=middle;align=center;verticalAlign=middle;textDirection=ltr;fillColor=none;fontColor=#000000;strokeColor=#006EAF;fillStyle=solid;strokeWidth=2;fontSize=14;" parent="1" vertex="1">
          <mxGeometry x="120" width="40" height="40" as="geometry" />
        </mxCell>
        <mxCell id="nuuUv_DU9fzOyV3LUxx7-4" value="&lt;b style=&quot;font-size: 14px;&quot;&gt;SD&lt;/b&gt;" style="whiteSpace=wrap;html=1;aspect=fixed;labelPosition=center;verticalLabelPosition=middle;align=center;verticalAlign=middle;fillColor=none;fontColor=#000000;strokeColor=#006EAF;strokeWidth=2;fontSize=14;" parent="1" vertex="1">
          <mxGeometry x="380" width="40" height="40" as="geometry" />
        </mxCell>
        <mxCell id="nuuUv_DU9fzOyV3LUxx7-5" value="" style="edgeStyle=orthogonalEdgeStyle;rounded=0;orthogonalLoop=1;jettySize=auto;html=1;labelPosition=center;verticalLabelPosition=middle;align=center;verticalAlign=middle;fontColor=#000000;strokeColor=#006EAF;fontSize=14;" parent="1" source="nuuUv_DU9fzOyV3LUxx7-6" target="nuuUv_DU9fzOyV3LUxx7-12" edge="1">
          <mxGeometry relative="1" as="geometry" />
        </mxCell>
        <mxCell id="nuuUv_DU9fzOyV3LUxx7-6" value="&lt;b style=&quot;font-size: 14px;&quot;&gt;PDL&lt;/b&gt;" style="html=1;aspect=fixed;labelPosition=center;verticalLabelPosition=middle;align=center;verticalAlign=middle;fillColor=none;fontColor=#000000;strokeColor=#006EAF;strokeWidth=2;fontSize=14;" parent="1" vertex="1">
          <mxGeometry x="260" y="80" width="40" height="40" as="geometry" />
        </mxCell>
        <mxCell id="nuuUv_DU9fzOyV3LUxx7-7" style="edgeStyle=orthogonalEdgeStyle;rounded=0;orthogonalLoop=1;jettySize=auto;html=1;labelPosition=center;verticalLabelPosition=middle;align=center;verticalAlign=middle;fontColor=#000000;strokeColor=#006EAF;fontSize=14;" parent="1" source="nuuUv_DU9fzOyV3LUxx7-8" target="nuuUv_DU9fzOyV3LUxx7-4" edge="1">
          <mxGeometry relative="1" as="geometry" />
        </mxCell>
        <mxCell id="nuuUv_DU9fzOyV3LUxx7-8" value="P7" style="ellipse;whiteSpace=wrap;html=1;aspect=fixed;labelPosition=center;verticalLabelPosition=middle;align=center;verticalAlign=middle;fillColor=none;fontColor=#000000;strokeColor=#006EAF;strokeWidth=2;fontSize=14;" parent="1" vertex="1">
          <mxGeometry x="190" width="40" height="40" as="geometry" />
        </mxCell>
        <mxCell id="h5VOHFV0B111vVuhWzqz-18" style="edgeStyle=orthogonalEdgeStyle;rounded=0;orthogonalLoop=1;jettySize=auto;html=1;labelPosition=center;verticalLabelPosition=middle;align=center;verticalAlign=middle;exitX=0.5;exitY=1;exitDx=0;exitDy=0;fontColor=#000000;entryX=0.5;entryY=0;entryDx=0;entryDy=0;fontSize=14;" parent="1" source="h5VOHFV0B111vVuhWzqz-19" target="y9ymkbr7k5azt2smzUeP-9" edge="1">
          <mxGeometry relative="1" as="geometry">
            <mxPoint x="510" y="50" as="sourcePoint" />
            <mxPoint x="410" y="240" as="targetPoint" />
            <Array as="points">
              <mxPoint x="470" y="160" />
              <mxPoint x="420" y="160" />
            </Array>
          </mxGeometry>
        </mxCell>
        <mxCell id="nuuUv_DU9fzOyV3LUxx7-11" value="P11" style="ellipse;whiteSpace=wrap;html=1;aspect=fixed;labelPosition=center;verticalLabelPosition=middle;align=center;verticalAlign=middle;fillColor=none;fontColor=#000000;strokeColor=#006EAF;strokeWidth=2;fontSize=14;" parent="1" vertex="1">
          <mxGeometry x="450" width="40" height="40" as="geometry" />
        </mxCell>
        <mxCell id="nuuUv_DU9fzOyV3LUxx7-12" value="P9" style="ellipse;whiteSpace=wrap;html=1;aspect=fixed;labelPosition=center;verticalLabelPosition=middle;align=center;verticalAlign=middle;fillColor=none;fontColor=#000000;strokeColor=#006EAF;strokeWidth=2;fontSize=14;" parent="1" vertex="1">
          <mxGeometry x="330" y="80" width="40" height="40" as="geometry" />
        </mxCell>
        <mxCell id="nuuUv_DU9fzOyV3LUxx7-13" value="" style="edgeStyle=orthogonalEdgeStyle;rounded=0;orthogonalLoop=1;jettySize=auto;html=1;labelPosition=center;verticalLabelPosition=middle;align=center;verticalAlign=middle;fontColor=#000000;strokeColor=#006EAF;fontSize=14;" parent="1" source="nuuUv_DU9fzOyV3LUxx7-14" target="nuuUv_DU9fzOyV3LUxx7-6" edge="1">
          <mxGeometry relative="1" as="geometry" />
        </mxCell>
        <mxCell id="nuuUv_DU9fzOyV3LUxx7-14" value="P8" style="ellipse;whiteSpace=wrap;html=1;aspect=fixed;labelPosition=center;verticalLabelPosition=middle;align=center;verticalAlign=middle;fillColor=none;fontColor=#000000;strokeColor=#006EAF;strokeWidth=2;fontSize=14;" parent="1" vertex="1">
          <mxGeometry x="190" y="80" width="40" height="40" as="geometry" />
        </mxCell>
        <mxCell id="nuuUv_DU9fzOyV3LUxx7-15" value="" style="endArrow=classic;html=1;rounded=0;entryX=0;entryY=0;entryDx=0;entryDy=0;exitX=1;exitY=1;exitDx=0;exitDy=0;labelPosition=center;verticalLabelPosition=middle;align=center;verticalAlign=middle;fontColor=#000000;strokeColor=#006EAF;fontSize=14;" parent="1" source="nuuUv_DU9fzOyV3LUxx7-2" target="nuuUv_DU9fzOyV3LUxx7-14" edge="1">
          <mxGeometry width="50" height="50" relative="1" as="geometry">
            <mxPoint x="175" y="40" as="sourcePoint" />
            <mxPoint x="225" y="-10" as="targetPoint" />
          </mxGeometry>
        </mxCell>
        <mxCell id="nuuUv_DU9fzOyV3LUxx7-16" value="" style="endArrow=classic;html=1;rounded=0;entryX=0;entryY=1;entryDx=0;entryDy=0;labelPosition=center;verticalLabelPosition=middle;align=center;verticalAlign=middle;fontColor=#000000;strokeColor=#006EAF;fontSize=14;" parent="1" source="nuuUv_DU9fzOyV3LUxx7-12" target="nuuUv_DU9fzOyV3LUxx7-4" edge="1">
          <mxGeometry width="50" height="50" relative="1" as="geometry">
            <mxPoint x="475" y="110" as="sourcePoint" />
            <mxPoint x="525" y="60" as="targetPoint" />
          </mxGeometry>
        </mxCell>
        <mxCell id="_3WKYLrEgpkgr9hvNwxl-3" value="P24" style="ellipse;whiteSpace=wrap;html=1;aspect=fixed;labelPosition=center;verticalLabelPosition=middle;align=center;verticalAlign=middle;fillColor=none;fontColor=#000000;strokeColor=#009900;strokeWidth=2;fontSize=14;" parent="1" vertex="1">
          <mxGeometry x="1126" width="40" height="40" as="geometry" />
        </mxCell>
        <mxCell id="_3WKYLrEgpkgr9hvNwxl-4" value="P25" style="ellipse;whiteSpace=wrap;html=1;aspect=fixed;labelPosition=center;verticalLabelPosition=middle;align=center;verticalAlign=middle;fillColor=none;fontColor=#000000;strokeColor=#009900;strokeWidth=2;fontSize=14;" parent="1" vertex="1">
          <mxGeometry x="1126" y="110" width="40" height="40" as="geometry" />
        </mxCell>
        <mxCell id="_3WKYLrEgpkgr9hvNwxl-5" value="P26" style="ellipse;whiteSpace=wrap;html=1;aspect=fixed;labelPosition=center;verticalLabelPosition=middle;align=center;verticalAlign=middle;fillColor=none;fontColor=#000000;strokeColor=#009900;strokeWidth=2;fontSize=14;" parent="1" vertex="1">
          <mxGeometry x="1280" y="10" width="40" height="40" as="geometry" />
        </mxCell>
        <mxCell id="_3WKYLrEgpkgr9hvNwxl-6" style="edgeStyle=orthogonalEdgeStyle;rounded=0;orthogonalLoop=1;jettySize=auto;html=1;labelPosition=center;verticalLabelPosition=middle;align=center;verticalAlign=middle;fontColor=#000000;strokeColor=#009900;fontSize=14;" parent="1" source="_3WKYLrEgpkgr9hvNwxl-7" target="_3WKYLrEgpkgr9hvNwxl-18" edge="1">
          <mxGeometry relative="1" as="geometry" />
        </mxCell>
        <mxCell id="_3WKYLrEgpkgr9hvNwxl-7" value="P20" style="ellipse;whiteSpace=wrap;html=1;aspect=fixed;labelPosition=center;verticalLabelPosition=middle;align=center;verticalAlign=middle;fillColor=none;fontColor=#000000;strokeColor=#009900;strokeWidth=2;fontSize=14;" parent="1" vertex="1">
          <mxGeometry x="730" y="110" width="40" height="40" as="geometry" />
        </mxCell>
        <mxCell id="_3WKYLrEgpkgr9hvNwxl-8" value="" style="edgeStyle=orthogonalEdgeStyle;rounded=0;orthogonalLoop=1;jettySize=auto;html=1;labelPosition=center;verticalLabelPosition=middle;align=center;verticalAlign=middle;fontColor=#000000;strokeColor=#009900;fontSize=14;" parent="1" target="_3WKYLrEgpkgr9hvNwxl-16" edge="1">
          <mxGeometry relative="1" as="geometry">
            <mxPoint x="770" y="20" as="sourcePoint" />
          </mxGeometry>
        </mxCell>
        <mxCell id="_3WKYLrEgpkgr9hvNwxl-9" value="P19" style="ellipse;whiteSpace=wrap;html=1;aspect=fixed;labelPosition=center;verticalLabelPosition=middle;align=center;verticalAlign=middle;fillColor=none;fontColor=#000000;strokeColor=#009900;strokeWidth=2;fontSize=14;" parent="1" vertex="1">
          <mxGeometry x="730" y="-5" width="40" height="40" as="geometry" />
        </mxCell>
        <mxCell id="_3WKYLrEgpkgr9hvNwxl-10" style="edgeStyle=orthogonalEdgeStyle;rounded=0;orthogonalLoop=1;jettySize=auto;html=1;labelPosition=center;verticalLabelPosition=middle;align=center;verticalAlign=middle;fontColor=#000000;strokeColor=#009900;fontSize=14;" parent="1" source="_3WKYLrEgpkgr9hvNwxl-11" target="_3WKYLrEgpkgr9hvNwxl-20" edge="1">
          <mxGeometry relative="1" as="geometry" />
        </mxCell>
        <mxCell id="_3WKYLrEgpkgr9hvNwxl-11" value="P21" style="ellipse;whiteSpace=wrap;html=1;aspect=fixed;labelPosition=center;verticalLabelPosition=middle;align=center;verticalAlign=middle;fillColor=none;fontColor=#000000;strokeColor=#009900;strokeWidth=2;fontSize=14;" parent="1" vertex="1">
          <mxGeometry x="916" width="40" height="40" as="geometry" />
        </mxCell>
        <mxCell id="_3WKYLrEgpkgr9hvNwxl-12" value="P22" style="ellipse;whiteSpace=wrap;html=1;aspect=fixed;labelPosition=center;verticalLabelPosition=middle;align=center;verticalAlign=middle;fillColor=none;fontColor=#000000;strokeColor=#009900;strokeWidth=2;fontSize=14;" parent="1" vertex="1">
          <mxGeometry x="860" y="60" width="40" height="40" as="geometry" />
        </mxCell>
        <mxCell id="_3WKYLrEgpkgr9hvNwxl-13" value="P23" style="ellipse;whiteSpace=wrap;html=1;aspect=fixed;labelPosition=center;verticalLabelPosition=middle;align=center;verticalAlign=middle;fillColor=none;fontColor=#000000;strokeColor=#009900;strokeWidth=2;fontSize=14;" parent="1" vertex="1">
          <mxGeometry x="970" y="60" width="40" height="40" as="geometry" />
        </mxCell>
        <mxCell id="_3WKYLrEgpkgr9hvNwxl-14" value="&lt;b style=&quot;font-size: 14px;&quot;&gt;PAFH&lt;/b&gt;" style="html=1;aspect=fixed;labelPosition=center;verticalLabelPosition=middle;align=center;verticalAlign=middle;fillColor=none;fontColor=#000000;strokeColor=#009900;strokeWidth=2;fontSize=14;" parent="1" vertex="1">
          <mxGeometry x="670" y="40" width="40" height="40" as="geometry" />
        </mxCell>
        <mxCell id="_3WKYLrEgpkgr9hvNwxl-15" value="" style="edgeStyle=orthogonalEdgeStyle;rounded=0;orthogonalLoop=1;jettySize=auto;html=1;labelPosition=center;verticalLabelPosition=middle;align=center;verticalAlign=middle;fontColor=#000000;strokeColor=#009900;fontSize=14;" parent="1" source="_3WKYLrEgpkgr9hvNwxl-16" target="_3WKYLrEgpkgr9hvNwxl-11" edge="1">
          <mxGeometry relative="1" as="geometry" />
        </mxCell>
        <mxCell id="_3WKYLrEgpkgr9hvNwxl-16" value="&lt;b style=&quot;font-size: 14px;&quot;&gt;PIA&lt;/b&gt;" style="whiteSpace=wrap;html=1;aspect=fixed;labelPosition=center;verticalLabelPosition=middle;align=center;verticalAlign=middle;fillColor=none;fontColor=#000000;strokeColor=#009900;strokeWidth=2;fontSize=14;" parent="1" vertex="1">
          <mxGeometry x="800" width="40" height="40" as="geometry" />
        </mxCell>
        <mxCell id="_3WKYLrEgpkgr9hvNwxl-17" style="edgeStyle=orthogonalEdgeStyle;rounded=0;orthogonalLoop=1;jettySize=auto;html=1;entryX=0;entryY=0.5;entryDx=0;entryDy=0;labelPosition=center;verticalLabelPosition=middle;align=center;verticalAlign=middle;fontColor=#000000;strokeColor=#009900;fontSize=14;" parent="1" source="_3WKYLrEgpkgr9hvNwxl-18" target="_3WKYLrEgpkgr9hvNwxl-4" edge="1">
          <mxGeometry relative="1" as="geometry" />
        </mxCell>
        <mxCell id="_3WKYLrEgpkgr9hvNwxl-18" value="&lt;b style=&quot;font-size: 14px;&quot;&gt;PT&lt;/b&gt;" style="whiteSpace=wrap;html=1;aspect=fixed;labelPosition=center;verticalLabelPosition=middle;align=center;verticalAlign=middle;fillColor=none;fontColor=#000000;strokeColor=#009900;strokeWidth=2;fontSize=14;" parent="1" vertex="1">
          <mxGeometry x="916" y="110" width="40" height="40" as="geometry" />
        </mxCell>
        <mxCell id="_3WKYLrEgpkgr9hvNwxl-19" value="" style="edgeStyle=orthogonalEdgeStyle;rounded=0;orthogonalLoop=1;jettySize=auto;html=1;labelPosition=center;verticalLabelPosition=middle;align=center;verticalAlign=middle;fontColor=#000000;strokeColor=#009900;fontSize=14;" parent="1" source="_3WKYLrEgpkgr9hvNwxl-20" target="_3WKYLrEgpkgr9hvNwxl-3" edge="1">
          <mxGeometry relative="1" as="geometry" />
        </mxCell>
        <mxCell id="_3WKYLrEgpkgr9hvNwxl-20" value="&lt;b style=&quot;font-size: 14px;&quot;&gt;VRT&lt;/b&gt;" style="html=1;aspect=fixed;labelPosition=center;verticalLabelPosition=middle;align=center;verticalAlign=middle;fillColor=none;fontColor=#000000;strokeColor=#009900;strokeWidth=2;fontSize=14;" parent="1" vertex="1">
          <mxGeometry x="1046" width="40" height="40" as="geometry" />
        </mxCell>
        <mxCell id="_3WKYLrEgpkgr9hvNwxl-22" value="&lt;b style=&quot;font-size: 14px;&quot;&gt;TPB&lt;/b&gt;" style="html=1;aspect=fixed;labelPosition=center;verticalLabelPosition=middle;align=center;verticalAlign=middle;fillColor=none;fontColor=#000000;strokeColor=#009900;strokeWidth=2;fontSize=14;" parent="1" vertex="1">
          <mxGeometry x="1190" y="60" width="40" height="40" as="geometry" />
        </mxCell>
        <mxCell id="_3WKYLrEgpkgr9hvNwxl-23" value="" style="endArrow=classic;html=1;rounded=0;exitX=1;exitY=0.75;exitDx=0;exitDy=0;labelPosition=center;verticalLabelPosition=middle;align=center;verticalAlign=middle;fontColor=#000000;strokeColor=#009900;fontSize=14;" parent="1" source="_3WKYLrEgpkgr9hvNwxl-14" target="_3WKYLrEgpkgr9hvNwxl-7" edge="1">
          <mxGeometry width="50" height="50" relative="1" as="geometry">
            <mxPoint x="780" y="90" as="sourcePoint" />
            <mxPoint x="830" y="40" as="targetPoint" />
            <Array as="points" />
          </mxGeometry>
        </mxCell>
        <mxCell id="_3WKYLrEgpkgr9hvNwxl-25" value="" style="endArrow=classic;html=1;rounded=0;exitX=1;exitY=0;exitDx=0;exitDy=0;entryX=0;entryY=1;entryDx=0;entryDy=0;labelPosition=center;verticalLabelPosition=middle;align=center;verticalAlign=middle;fontColor=#000000;strokeColor=#009900;fontSize=14;" parent="1" source="_3WKYLrEgpkgr9hvNwxl-4" target="_3WKYLrEgpkgr9hvNwxl-22" edge="1">
          <mxGeometry width="50" height="50" relative="1" as="geometry">
            <mxPoint x="1290" y="110" as="sourcePoint" />
            <mxPoint x="1340" y="60" as="targetPoint" />
          </mxGeometry>
        </mxCell>
        <mxCell id="_3WKYLrEgpkgr9hvNwxl-26" value="" style="endArrow=classic;html=1;rounded=0;exitX=1;exitY=1;exitDx=0;exitDy=0;entryX=0;entryY=0;entryDx=0;entryDy=0;labelPosition=center;verticalLabelPosition=middle;align=center;verticalAlign=middle;fontColor=#000000;strokeColor=#009900;fontSize=14;" parent="1" source="_3WKYLrEgpkgr9hvNwxl-16" target="_3WKYLrEgpkgr9hvNwxl-12" edge="1">
          <mxGeometry width="50" height="50" relative="1" as="geometry">
            <mxPoint x="890" y="25" as="sourcePoint" />
            <mxPoint x="940" y="-25" as="targetPoint" />
          </mxGeometry>
        </mxCell>
        <mxCell id="_3WKYLrEgpkgr9hvNwxl-27" value="" style="endArrow=classic;html=1;rounded=0;entryX=0;entryY=0;entryDx=0;entryDy=0;exitX=1;exitY=1;exitDx=0;exitDy=0;labelPosition=center;verticalLabelPosition=middle;align=center;verticalAlign=middle;fontColor=#000000;strokeColor=#009900;fontSize=14;" parent="1" source="_3WKYLrEgpkgr9hvNwxl-12" target="_3WKYLrEgpkgr9hvNwxl-18" edge="1">
          <mxGeometry width="50" height="50" relative="1" as="geometry">
            <mxPoint x="970" y="40" as="sourcePoint" />
            <mxPoint x="1020" y="-10" as="targetPoint" />
          </mxGeometry>
        </mxCell>
        <mxCell id="_3WKYLrEgpkgr9hvNwxl-28" value="" style="endArrow=classic;html=1;rounded=0;exitX=1;exitY=0;exitDx=0;exitDy=0;entryX=0;entryY=1;entryDx=0;entryDy=0;labelPosition=center;verticalLabelPosition=middle;align=center;verticalAlign=middle;fontColor=#000000;strokeColor=#009900;fontSize=14;" parent="1" source="_3WKYLrEgpkgr9hvNwxl-18" target="_3WKYLrEgpkgr9hvNwxl-13" edge="1">
          <mxGeometry width="50" height="50" relative="1" as="geometry">
            <mxPoint x="1060" y="100" as="sourcePoint" />
            <mxPoint x="1110" y="50" as="targetPoint" />
          </mxGeometry>
        </mxCell>
        <mxCell id="_3WKYLrEgpkgr9hvNwxl-29" value="" style="endArrow=classic;html=1;rounded=0;exitX=1;exitY=0;exitDx=0;exitDy=0;entryX=0;entryY=1;entryDx=0;entryDy=0;labelPosition=center;verticalLabelPosition=middle;align=center;verticalAlign=middle;fontColor=#000000;strokeColor=#009900;fontSize=14;" parent="1" source="_3WKYLrEgpkgr9hvNwxl-13" target="_3WKYLrEgpkgr9hvNwxl-20" edge="1">
          <mxGeometry width="50" height="50" relative="1" as="geometry">
            <mxPoint x="1160" y="45" as="sourcePoint" />
            <mxPoint x="1210" y="-5" as="targetPoint" />
          </mxGeometry>
        </mxCell>
        <mxCell id="_3WKYLrEgpkgr9hvNwxl-30" value="" style="endArrow=classic;html=1;rounded=0;exitX=1;exitY=1;exitDx=0;exitDy=0;entryX=0;entryY=0;entryDx=0;entryDy=0;labelPosition=center;verticalLabelPosition=middle;align=center;verticalAlign=middle;fontColor=#000000;strokeColor=#009900;fontSize=14;" parent="1" source="_3WKYLrEgpkgr9hvNwxl-3" target="_3WKYLrEgpkgr9hvNwxl-22" edge="1">
          <mxGeometry width="50" height="50" relative="1" as="geometry">
            <mxPoint x="1220" y="-19" as="sourcePoint" />
            <mxPoint x="1256" y="-55" as="targetPoint" />
          </mxGeometry>
        </mxCell>
        <mxCell id="h5VOHFV0B111vVuhWzqz-19" value="P10" style="ellipse;whiteSpace=wrap;html=1;aspect=fixed;labelPosition=center;verticalLabelPosition=middle;align=center;verticalAlign=middle;fontColor=#000000;strokeColor=#006EAF;strokeWidth=2;fontSize=14;" parent="1" vertex="1">
          <mxGeometry x="450" y="50" width="40" height="40" as="geometry" />
        </mxCell>
        <mxCell id="h5VOHFV0B111vVuhWzqz-20" value="" style="endArrow=classic;html=1;rounded=0;labelPosition=center;verticalLabelPosition=middle;align=center;verticalAlign=middle;exitX=1;exitY=0.5;exitDx=0;exitDy=0;entryX=0.5;entryY=0;entryDx=0;entryDy=0;fontColor=#000000;fontSize=14;" parent="1" source="nuuUv_DU9fzOyV3LUxx7-11" target="y9ymkbr7k5azt2smzUeP-17" edge="1">
          <mxGeometry width="50" height="50" relative="1" as="geometry">
            <mxPoint x="470" y="-20" as="sourcePoint" />
            <mxPoint x="560" y="230" as="targetPoint" />
            <Array as="points">
              <mxPoint x="550" y="20" />
            </Array>
          </mxGeometry>
        </mxCell>
        <mxCell id="h5VOHFV0B111vVuhWzqz-21" value="" style="endArrow=classic;html=1;rounded=0;exitX=0.5;exitY=0;exitDx=0;exitDy=0;entryX=0.5;entryY=1;entryDx=0;entryDy=0;labelPosition=center;verticalLabelPosition=middle;align=center;verticalAlign=middle;fontColor=#000000;fontSize=14;" parent="1" source="y9ymkbr7k5azt2smzUeP-2" target="nuuUv_DU9fzOyV3LUxx7-2" edge="1">
          <mxGeometry width="50" height="50" relative="1" as="geometry">
            <mxPoint x="70" y="240" as="sourcePoint" />
            <mxPoint x="120" y="190" as="targetPoint" />
            <Array as="points">
              <mxPoint x="280" y="130" />
              <mxPoint x="140" y="130" />
            </Array>
          </mxGeometry>
        </mxCell>
        <mxCell id="h5VOHFV0B111vVuhWzqz-22" value="" style="endArrow=classic;html=1;rounded=0;exitX=1;exitY=0.5;exitDx=0;exitDy=0;entryX=0;entryY=0.5;entryDx=0;entryDy=0;labelPosition=center;verticalLabelPosition=middle;align=center;verticalAlign=middle;fontColor=#000000;strokeColor=#006EAF;fontSize=14;" parent="1" source="nuuUv_DU9fzOyV3LUxx7-4" target="nuuUv_DU9fzOyV3LUxx7-11" edge="1">
          <mxGeometry width="50" height="50" relative="1" as="geometry">
            <mxPoint x="330" y="-30" as="sourcePoint" />
            <mxPoint x="380" y="-80" as="targetPoint" />
          </mxGeometry>
        </mxCell>
        <mxCell id="h5VOHFV0B111vVuhWzqz-24" value="" style="endArrow=classic;html=1;rounded=0;exitX=1;exitY=0.5;exitDx=0;exitDy=0;entryX=0.5;entryY=0;entryDx=0;entryDy=0;labelPosition=center;verticalLabelPosition=middle;align=center;verticalAlign=middle;fontColor=#000000;fontSize=14;" parent="1" source="y9ymkbr7k5azt2smzUeP-8" target="nuuUv_DU9fzOyV3LUxx7-6" edge="1">
          <mxGeometry width="50" height="50" relative="1" as="geometry">
            <mxPoint x="230" y="260" as="sourcePoint" />
            <mxPoint x="280" y="210" as="targetPoint" />
            <Array as="points">
              <mxPoint x="130" y="100" />
              <mxPoint x="130" y="60" />
              <mxPoint x="190" y="60" />
              <mxPoint x="240" y="60" />
              <mxPoint x="280" y="60" />
            </Array>
          </mxGeometry>
        </mxCell>
        <mxCell id="h5VOHFV0B111vVuhWzqz-27" value="" style="endArrow=classic;html=1;rounded=0;exitX=1;exitY=0.5;exitDx=0;exitDy=0;entryX=0.5;entryY=1;entryDx=0;entryDy=0;labelPosition=center;verticalLabelPosition=middle;align=center;verticalAlign=middle;fontColor=#000000;fontSize=14;" parent="1" source="y9ymkbr7k5azt2smzUeP-32" target="_3WKYLrEgpkgr9hvNwxl-16" edge="1">
          <mxGeometry width="50" height="50" relative="1" as="geometry">
            <mxPoint x="1030" y="150" as="sourcePoint" />
            <mxPoint x="1080" y="100" as="targetPoint" />
            <Array as="points">
              <mxPoint x="820" y="190" />
              <mxPoint x="820" y="140" />
            </Array>
          </mxGeometry>
        </mxCell>
        <mxCell id="h5VOHFV0B111vVuhWzqz-28" value="" style="endArrow=classic;html=1;rounded=0;exitX=1;exitY=0.5;exitDx=0;exitDy=0;entryX=0.5;entryY=1;entryDx=0;entryDy=0;labelPosition=center;verticalLabelPosition=middle;align=center;verticalAlign=middle;fontColor=#000000;fontSize=14;" parent="1" source="y9ymkbr7k5azt2smzUeP-31" target="_3WKYLrEgpkgr9hvNwxl-14" edge="1">
          <mxGeometry width="50" height="50" relative="1" as="geometry">
            <mxPoint x="1020" y="260" as="sourcePoint" />
            <mxPoint x="1070" y="210" as="targetPoint" />
            <Array as="points">
              <mxPoint x="800" y="250" />
              <mxPoint x="800" y="160" />
              <mxPoint x="690" y="160" />
            </Array>
          </mxGeometry>
        </mxCell>
        <mxCell id="h5VOHFV0B111vVuhWzqz-31" value="" style="endArrow=classic;html=1;rounded=0;exitX=1;exitY=0.25;exitDx=0;exitDy=0;entryX=0;entryY=0.5;entryDx=0;entryDy=0;labelPosition=center;verticalLabelPosition=middle;align=center;verticalAlign=middle;fontColor=#000000;strokeColor=#009900;fontSize=14;" parent="1" source="_3WKYLrEgpkgr9hvNwxl-22" target="_3WKYLrEgpkgr9hvNwxl-5" edge="1">
          <mxGeometry width="50" height="50" relative="1" as="geometry">
            <mxPoint x="1256" y="105" as="sourcePoint" />
            <mxPoint x="1306" y="55" as="targetPoint" />
          </mxGeometry>
        </mxCell>
        <mxCell id="h5VOHFV0B111vVuhWzqz-32" value="P27" style="ellipse;whiteSpace=wrap;html=1;aspect=fixed;labelPosition=center;verticalLabelPosition=middle;align=center;verticalAlign=middle;fillColor=none;fontColor=#000000;strokeColor=#009900;strokeWidth=2;fontSize=14;" parent="1" vertex="1">
          <mxGeometry x="1280" y="100" width="40" height="40" as="geometry" />
        </mxCell>
        <mxCell id="h5VOHFV0B111vVuhWzqz-34" value="" style="endArrow=classic;html=1;rounded=0;exitX=1;exitY=0.75;exitDx=0;exitDy=0;entryX=0;entryY=0.5;entryDx=0;entryDy=0;labelPosition=center;verticalLabelPosition=middle;align=center;verticalAlign=middle;fontColor=#000000;strokeColor=#009900;fontSize=14;" parent="1" source="_3WKYLrEgpkgr9hvNwxl-22" target="h5VOHFV0B111vVuhWzqz-32" edge="1">
          <mxGeometry width="50" height="50" relative="1" as="geometry">
            <mxPoint x="1196" y="150" as="sourcePoint" />
            <mxPoint x="1246" y="100" as="targetPoint" />
          </mxGeometry>
        </mxCell>
        <mxCell id="h5VOHFV0B111vVuhWzqz-35" value="" style="endArrow=classic;html=1;rounded=0;exitX=0.5;exitY=1;exitDx=0;exitDy=0;entryX=0.5;entryY=0;entryDx=0;entryDy=0;labelPosition=center;verticalLabelPosition=middle;align=center;verticalAlign=middle;fontColor=#000000;fontSize=14;" parent="1" source="_3WKYLrEgpkgr9hvNwxl-5" target="y9ymkbr7k5azt2smzUeP-43" edge="1">
          <mxGeometry width="50" height="50" relative="1" as="geometry">
            <mxPoint x="1314" y="40" as="sourcePoint" />
            <mxPoint x="950" y="190" as="targetPoint" />
            <Array as="points">
              <mxPoint x="1300" y="90" />
              <mxPoint x="1260" y="90" />
              <mxPoint x="1260" y="160" />
              <mxPoint x="930" y="160" />
            </Array>
          </mxGeometry>
        </mxCell>
        <mxCell id="h5VOHFV0B111vVuhWzqz-36" value="" style="endArrow=classic;html=1;rounded=0;exitX=0.5;exitY=1;exitDx=0;exitDy=0;entryX=1;entryY=0.5;entryDx=0;entryDy=0;labelPosition=center;verticalLabelPosition=middle;align=center;verticalAlign=middle;fontColor=#000000;fontSize=14;" parent="1" source="h5VOHFV0B111vVuhWzqz-32" target="y9ymkbr7k5azt2smzUeP-39" edge="1">
          <mxGeometry width="50" height="50" relative="1" as="geometry">
            <mxPoint x="1716" y="300" as="sourcePoint" />
            <mxPoint x="1766" y="250" as="targetPoint" />
            <Array as="points">
              <mxPoint x="1300" y="160" />
              <mxPoint x="1300" y="260" />
            </Array>
          </mxGeometry>
        </mxCell>
        <mxCell id="h5VOHFV0B111vVuhWzqz-37" value="" style="endArrow=classic;html=1;rounded=0;exitX=1;exitY=0.25;exitDx=0;exitDy=0;entryX=0;entryY=1;entryDx=0;entryDy=0;fontColor=#000000;fontSize=14;" parent="1" source="y9ymkbr7k5azt2smzUeP-17" target="y9ymkbr7k5azt2smzUeP-22" edge="1">
          <mxGeometry width="50" height="50" relative="1" as="geometry">
            <mxPoint x="600" y="150" as="sourcePoint" />
            <mxPoint x="650" y="100" as="targetPoint" />
          </mxGeometry>
        </mxCell>
        <mxCell id="h5VOHFV0B111vVuhWzqz-39" value="" style="endArrow=classic;html=1;rounded=0;exitX=1;exitY=0.75;exitDx=0;exitDy=0;entryX=0;entryY=0.5;entryDx=0;entryDy=0;fontColor=#000000;fontSize=14;" parent="1" source="y9ymkbr7k5azt2smzUeP-27" target="y9ymkbr7k5azt2smzUeP-31" edge="1">
          <mxGeometry width="50" height="50" relative="1" as="geometry">
            <mxPoint x="600" y="170" as="sourcePoint" />
            <mxPoint x="650" y="120" as="targetPoint" />
          </mxGeometry>
        </mxCell>
        <mxCell id="h5VOHFV0B111vVuhWzqz-40" value="" style="endArrow=classic;html=1;rounded=0;exitX=1;exitY=0.5;exitDx=0;exitDy=0;entryX=0;entryY=0.5;entryDx=0;entryDy=0;fontColor=#000000;fontSize=14;" parent="1" source="y9ymkbr7k5azt2smzUeP-26" target="y9ymkbr7k5azt2smzUeP-33" edge="1">
          <mxGeometry width="50" height="50" relative="1" as="geometry">
            <mxPoint x="810" y="290" as="sourcePoint" />
            <mxPoint x="860" y="240" as="targetPoint" />
          </mxGeometry>
        </mxCell>
        <mxCell id="h5VOHFV0B111vVuhWzqz-42" value="" style="endArrow=classic;html=1;rounded=0;exitX=1;exitY=0.75;exitDx=0;exitDy=0;entryX=0;entryY=0;entryDx=0;entryDy=0;fontColor=#000000;fontSize=14;" parent="1" source="y9ymkbr7k5azt2smzUeP-39" target="y9ymkbr7k5azt2smzUeP-57" edge="1">
          <mxGeometry width="50" height="50" relative="1" as="geometry">
            <mxPoint x="1020" y="340" as="sourcePoint" />
            <mxPoint x="1070" y="290" as="targetPoint" />
          </mxGeometry>
        </mxCell>
        <mxCell id="h5VOHFV0B111vVuhWzqz-43" value="" style="endArrow=classic;html=1;rounded=0;exitX=1;exitY=0.5;exitDx=0;exitDy=0;entryX=0;entryY=0.5;entryDx=0;entryDy=0;fontColor=#000000;fontSize=14;" parent="1" source="y9ymkbr7k5azt2smzUeP-57" target="y9ymkbr7k5azt2smzUeP-52" edge="1">
          <mxGeometry width="50" height="50" relative="1" as="geometry">
            <mxPoint x="1240" y="370" as="sourcePoint" />
            <mxPoint x="1290" y="320" as="targetPoint" />
          </mxGeometry>
        </mxCell>
        <mxCell id="h5VOHFV0B111vVuhWzqz-45" value="" style="endArrow=classic;html=1;rounded=0;exitX=1;exitY=0.75;exitDx=0;exitDy=0;entryX=0;entryY=0;entryDx=0;entryDy=0;fontColor=#000000;strokeColor=#006EAF;fontSize=14;" parent="1" source="nuuUv_DU9fzOyV3LUxx7-4" target="h5VOHFV0B111vVuhWzqz-19" edge="1">
          <mxGeometry width="50" height="50" relative="1" as="geometry">
            <mxPoint x="440" y="50" as="sourcePoint" />
            <mxPoint x="490" as="targetPoint" />
          </mxGeometry>
        </mxCell>
        <mxCell id="h5VOHFV0B111vVuhWzqz-53" value="" style="endArrow=classic;html=1;rounded=0;exitX=1;exitY=0.5;exitDx=0;exitDy=0;entryX=0;entryY=1;entryDx=0;entryDy=0;strokeColor=#009900;fontSize=14;" parent="1" source="_3WKYLrEgpkgr9hvNwxl-14" target="_3WKYLrEgpkgr9hvNwxl-9" edge="1">
          <mxGeometry width="50" height="50" relative="1" as="geometry">
            <mxPoint x="750" y="-20" as="sourcePoint" />
            <mxPoint x="800" y="-70" as="targetPoint" />
          </mxGeometry>
        </mxCell>
      </root>
    </mxGraphModel>
  </diagram>
  <diagram id="AfTO4267Czj9sW1XwcGu" name="dipendenza uno">
    <mxGraphModel dx="2309" dy="764" grid="1" gridSize="10" guides="1" tooltips="1" connect="1" arrows="1" fold="1" page="1" pageScale="1" pageWidth="1169" pageHeight="1654" math="0" shadow="0">
      <root>
        <mxCell id="0" />
        <mxCell id="1" parent="0" />
        <mxCell id="MQ4e4x_bBQmEIr4lHEFC-1" value="" style="edgeStyle=orthogonalEdgeStyle;rounded=0;orthogonalLoop=1;jettySize=auto;html=1;fontSize=14;labelPosition=center;verticalLabelPosition=middle;align=center;verticalAlign=middle;" parent="1" source="MQ4e4x_bBQmEIr4lHEFC-2" target="MQ4e4x_bBQmEIr4lHEFC-4" edge="1">
          <mxGeometry relative="1" as="geometry" />
        </mxCell>
        <mxCell id="MQ4e4x_bBQmEIr4lHEFC-2" value="P0" style="ellipse;whiteSpace=wrap;html=1;aspect=fixed;labelPosition=center;verticalLabelPosition=middle;align=center;verticalAlign=middle;fontSize=14;" parent="1" vertex="1">
          <mxGeometry x="-22" y="600" width="40" height="40" as="geometry" />
        </mxCell>
        <mxCell id="MQ4e4x_bBQmEIr4lHEFC-3" value="" style="edgeStyle=orthogonalEdgeStyle;rounded=0;orthogonalLoop=1;jettySize=auto;html=1;fontSize=14;labelPosition=center;verticalLabelPosition=middle;align=center;verticalAlign=middle;" parent="1" source="MQ4e4x_bBQmEIr4lHEFC-4" target="MQ4e4x_bBQmEIr4lHEFC-6" edge="1">
          <mxGeometry relative="1" as="geometry" />
        </mxCell>
        <mxCell id="MQ4e4x_bBQmEIr4lHEFC-4" value="&lt;b style=&quot;font-size: 14px;&quot;&gt;PH&lt;/b&gt;" style="whiteSpace=wrap;html=1;aspect=fixed;labelPosition=center;verticalLabelPosition=middle;align=center;verticalAlign=middle;fontSize=14;" parent="1" vertex="1">
          <mxGeometry x="38" y="600" width="40" height="40" as="geometry" />
        </mxCell>
        <mxCell id="MQ4e4x_bBQmEIr4lHEFC-5" value="" style="edgeStyle=orthogonalEdgeStyle;rounded=0;orthogonalLoop=1;jettySize=auto;html=1;fontSize=14;labelPosition=center;verticalLabelPosition=middle;align=center;verticalAlign=middle;" parent="1" source="MQ4e4x_bBQmEIr4lHEFC-6" target="MQ4e4x_bBQmEIr4lHEFC-8" edge="1">
          <mxGeometry relative="1" as="geometry" />
        </mxCell>
        <mxCell id="MQ4e4x_bBQmEIr4lHEFC-6" value="P1" style="ellipse;whiteSpace=wrap;html=1;aspect=fixed;labelPosition=center;verticalLabelPosition=middle;align=center;verticalAlign=middle;fontSize=14;" parent="1" vertex="1">
          <mxGeometry x="98" y="600" width="40" height="40" as="geometry" />
        </mxCell>
        <mxCell id="MQ4e4x_bBQmEIr4lHEFC-7" style="edgeStyle=orthogonalEdgeStyle;rounded=0;orthogonalLoop=1;jettySize=auto;html=1;" parent="1" source="MQ4e4x_bBQmEIr4lHEFC-8" target="MQ4e4x_bBQmEIr4lHEFC-10" edge="1">
          <mxGeometry relative="1" as="geometry" />
        </mxCell>
        <mxCell id="MQ4e4x_bBQmEIr4lHEFC-8" value="&lt;b style=&quot;font-size: 14px;&quot;&gt;COPA&lt;/b&gt;" style="whiteSpace=wrap;html=1;aspect=fixed;labelPosition=center;verticalLabelPosition=middle;align=center;verticalAlign=middle;fontSize=14;" parent="1" vertex="1">
          <mxGeometry x="158" y="600" width="40" height="40" as="geometry" />
        </mxCell>
        <mxCell id="MQ4e4x_bBQmEIr4lHEFC-9" style="edgeStyle=orthogonalEdgeStyle;rounded=0;orthogonalLoop=1;jettySize=auto;html=1;" parent="1" source="MQ4e4x_bBQmEIr4lHEFC-10" target="MQ4e4x_bBQmEIr4lHEFC-12" edge="1">
          <mxGeometry relative="1" as="geometry" />
        </mxCell>
        <mxCell id="MQ4e4x_bBQmEIr4lHEFC-10" value="P2" style="ellipse;whiteSpace=wrap;html=1;aspect=fixed;labelPosition=center;verticalLabelPosition=middle;align=center;verticalAlign=middle;fontSize=14;" parent="1" vertex="1">
          <mxGeometry x="218" y="600" width="40" height="40" as="geometry" />
        </mxCell>
        <mxCell id="MQ4e4x_bBQmEIr4lHEFC-12" value="&lt;b style=&quot;font-size: 14px;&quot;&gt;OD&lt;/b&gt;" style="whiteSpace=wrap;html=1;aspect=fixed;labelPosition=center;verticalLabelPosition=middle;align=center;verticalAlign=middle;fontSize=14;" parent="1" vertex="1">
          <mxGeometry x="278" y="600" width="40" height="40" as="geometry" />
        </mxCell>
        <mxCell id="MQ4e4x_bBQmEIr4lHEFC-15" style="edgeStyle=orthogonalEdgeStyle;rounded=0;orthogonalLoop=1;jettySize=auto;html=1;fontSize=14;labelPosition=center;verticalLabelPosition=middle;align=center;verticalAlign=middle;" parent="1" source="MQ4e4x_bBQmEIr4lHEFC-16" target="MQ4e4x_bBQmEIr4lHEFC-18" edge="1">
          <mxGeometry relative="1" as="geometry" />
        </mxCell>
        <mxCell id="MQ4e4x_bBQmEIr4lHEFC-16" value="&lt;b style=&quot;font-size: 14px;&quot;&gt;RD&lt;/b&gt;" style="whiteSpace=wrap;html=1;aspect=fixed;labelPosition=center;verticalLabelPosition=middle;align=center;verticalAlign=middle;fontSize=14;" parent="1" vertex="1">
          <mxGeometry x="360" y="600" width="40" height="40" as="geometry" />
        </mxCell>
        <mxCell id="MQ4e4x_bBQmEIr4lHEFC-17" style="edgeStyle=orthogonalEdgeStyle;rounded=0;orthogonalLoop=1;jettySize=auto;html=1;fontSize=14;labelPosition=center;verticalLabelPosition=middle;align=center;verticalAlign=middle;" parent="1" source="MQ4e4x_bBQmEIr4lHEFC-18" target="MQ4e4x_bBQmEIr4lHEFC-20" edge="1">
          <mxGeometry relative="1" as="geometry" />
        </mxCell>
        <mxCell id="MQ4e4x_bBQmEIr4lHEFC-18" value="P7" style="ellipse;whiteSpace=wrap;html=1;aspect=fixed;labelPosition=center;verticalLabelPosition=middle;align=center;verticalAlign=middle;fontSize=14;" parent="1" vertex="1">
          <mxGeometry x="420" y="600" width="40" height="40" as="geometry" />
        </mxCell>
        <mxCell id="MQ4e4x_bBQmEIr4lHEFC-19" style="edgeStyle=orthogonalEdgeStyle;rounded=0;orthogonalLoop=1;jettySize=auto;html=1;entryX=0;entryY=0.5;entryDx=0;entryDy=0;fontSize=14;labelPosition=center;verticalLabelPosition=middle;align=center;verticalAlign=middle;" parent="1" source="MQ4e4x_bBQmEIr4lHEFC-20" target="MQ4e4x_bBQmEIr4lHEFC-21" edge="1">
          <mxGeometry relative="1" as="geometry" />
        </mxCell>
        <mxCell id="MQ4e4x_bBQmEIr4lHEFC-20" value="&lt;b style=&quot;font-size: 14px;&quot;&gt;AD&lt;/b&gt;" style="whiteSpace=wrap;html=1;aspect=fixed;labelPosition=center;verticalLabelPosition=middle;align=center;verticalAlign=middle;fontSize=14;" parent="1" vertex="1">
          <mxGeometry x="480" y="600" width="40" height="40" as="geometry" />
        </mxCell>
        <mxCell id="MQ4e4x_bBQmEIr4lHEFC-21" value="P8" style="ellipse;whiteSpace=wrap;html=1;aspect=fixed;labelPosition=center;verticalLabelPosition=middle;align=center;verticalAlign=middle;fontSize=14;" parent="1" vertex="1">
          <mxGeometry x="588" y="600" width="40" height="40" as="geometry" />
        </mxCell>
        <mxCell id="MQ4e4x_bBQmEIr4lHEFC-22" value="&lt;b style=&quot;font-size: 14px;&quot;&gt;PRTA&lt;/b&gt;" style="whiteSpace=wrap;html=1;aspect=fixed;labelPosition=center;verticalLabelPosition=middle;align=center;verticalAlign=middle;fontSize=14;" parent="1" vertex="1">
          <mxGeometry x="658" y="600" width="40" height="40" as="geometry" />
        </mxCell>
        <mxCell id="MQ4e4x_bBQmEIr4lHEFC-23" style="edgeStyle=orthogonalEdgeStyle;rounded=0;orthogonalLoop=1;jettySize=auto;html=1;entryX=0.5;entryY=1;entryDx=0;entryDy=0;" parent="1" source="MQ4e4x_bBQmEIr4lHEFC-24" target="JefjOuCNF3crx7YnBMkL-2" edge="1">
          <mxGeometry relative="1" as="geometry">
            <mxPoint x="718" y="540" as="targetPoint" />
          </mxGeometry>
        </mxCell>
        <mxCell id="MQ4e4x_bBQmEIr4lHEFC-24" value="&lt;b style=&quot;font-size: 14px;&quot;&gt;TP&lt;/b&gt;" style="whiteSpace=wrap;html=1;aspect=fixed;labelPosition=center;verticalLabelPosition=middle;align=center;verticalAlign=middle;fontSize=14;" parent="1" vertex="1">
          <mxGeometry x="658" y="540" width="40" height="40" as="geometry" />
        </mxCell>
        <mxCell id="MQ4e4x_bBQmEIr4lHEFC-25" style="edgeStyle=orthogonalEdgeStyle;rounded=0;orthogonalLoop=1;jettySize=auto;html=1;fontSize=14;labelPosition=center;verticalLabelPosition=middle;align=center;verticalAlign=middle;exitX=0.5;exitY=1;exitDx=0;exitDy=0;entryX=1;entryY=0.5;entryDx=0;entryDy=0;" parent="1" source="JefjOuCNF3crx7YnBMkL-4" target="MQ4e4x_bBQmEIr4lHEFC-36" edge="1">
          <mxGeometry relative="1" as="geometry">
            <mxPoint x="758" y="540" as="sourcePoint" />
            <Array as="points">
              <mxPoint x="1102" y="560" />
            </Array>
          </mxGeometry>
        </mxCell>
        <mxCell id="MQ4e4x_bBQmEIr4lHEFC-27" style="edgeStyle=orthogonalEdgeStyle;rounded=0;orthogonalLoop=1;jettySize=auto;html=1;" parent="1" source="MQ4e4x_bBQmEIr4lHEFC-28" target="MQ4e4x_bBQmEIr4lHEFC-33" edge="1">
          <mxGeometry relative="1" as="geometry" />
        </mxCell>
        <mxCell id="MQ4e4x_bBQmEIr4lHEFC-28" value="P15" style="ellipse;whiteSpace=wrap;html=1;aspect=fixed;labelPosition=center;verticalLabelPosition=middle;align=center;verticalAlign=middle;fontSize=14;" parent="1" vertex="1">
          <mxGeometry x="838" y="600" width="40" height="40" as="geometry" />
        </mxCell>
        <mxCell id="MQ4e4x_bBQmEIr4lHEFC-29" style="edgeStyle=orthogonalEdgeStyle;rounded=0;orthogonalLoop=1;jettySize=auto;html=1;" parent="1" source="MQ4e4x_bBQmEIr4lHEFC-30" target="MQ4e4x_bBQmEIr4lHEFC-35" edge="1">
          <mxGeometry relative="1" as="geometry" />
        </mxCell>
        <mxCell id="MQ4e4x_bBQmEIr4lHEFC-30" value="P16" style="ellipse;whiteSpace=wrap;html=1;aspect=fixed;labelPosition=center;verticalLabelPosition=middle;align=center;verticalAlign=middle;fontSize=14;" parent="1" vertex="1">
          <mxGeometry x="838" y="660" width="40" height="40" as="geometry" />
        </mxCell>
        <mxCell id="MQ4e4x_bBQmEIr4lHEFC-31" value="" style="endArrow=classic;html=1;rounded=0;entryX=0;entryY=0.5;entryDx=0;entryDy=0;fontSize=14;labelPosition=center;verticalLabelPosition=middle;align=center;verticalAlign=middle;exitX=1;exitY=0.75;exitDx=0;exitDy=0;" parent="1" source="MQ4e4x_bBQmEIr4lHEFC-22" target="MQ4e4x_bBQmEIr4lHEFC-30" edge="1">
          <mxGeometry width="50" height="50" relative="1" as="geometry">
            <mxPoint x="708" y="650" as="sourcePoint" />
            <mxPoint x="733" y="675" as="targetPoint" />
            <Array as="points">
              <mxPoint x="758" y="680" />
            </Array>
          </mxGeometry>
        </mxCell>
        <mxCell id="MQ4e4x_bBQmEIr4lHEFC-32" style="edgeStyle=orthogonalEdgeStyle;rounded=0;orthogonalLoop=1;jettySize=auto;html=1;entryX=0;entryY=0.5;entryDx=0;entryDy=0;fontSize=14;labelPosition=center;verticalLabelPosition=middle;align=center;verticalAlign=middle;" parent="1" source="MQ4e4x_bBQmEIr4lHEFC-33" target="MQ4e4x_bBQmEIr4lHEFC-41" edge="1">
          <mxGeometry relative="1" as="geometry" />
        </mxCell>
        <mxCell id="MQ4e4x_bBQmEIr4lHEFC-33" value="&lt;b style=&quot;font-size: 14px;&quot;&gt;DPH&lt;br style=&quot;font-size: 14px;&quot;&gt;&lt;/b&gt;" style="whiteSpace=wrap;html=1;aspect=fixed;labelPosition=center;verticalLabelPosition=middle;align=center;verticalAlign=middle;fontSize=14;" parent="1" vertex="1">
          <mxGeometry x="898" y="600" width="40" height="40" as="geometry" />
        </mxCell>
        <mxCell id="MQ4e4x_bBQmEIr4lHEFC-34" style="edgeStyle=orthogonalEdgeStyle;rounded=0;orthogonalLoop=1;jettySize=auto;html=1;" parent="1" source="MQ4e4x_bBQmEIr4lHEFC-35" target="MQ4e4x_bBQmEIr4lHEFC-42" edge="1">
          <mxGeometry relative="1" as="geometry" />
        </mxCell>
        <mxCell id="MQ4e4x_bBQmEIr4lHEFC-35" value="&lt;b style=&quot;font-size: 14px;&quot;&gt;PCD&lt;/b&gt;" style="whiteSpace=wrap;html=1;aspect=fixed;labelPosition=center;verticalLabelPosition=middle;align=center;verticalAlign=middle;fontSize=14;" parent="1" vertex="1">
          <mxGeometry x="898" y="660" width="40" height="40" as="geometry" />
        </mxCell>
        <mxCell id="MQ4e4x_bBQmEIr4lHEFC-36" value="&lt;b style=&quot;font-size: 14px;&quot;&gt;RPB&lt;br style=&quot;font-size: 14px;&quot;&gt;&lt;/b&gt;" style="whiteSpace=wrap;html=1;aspect=fixed;labelPosition=center;verticalLabelPosition=middle;align=center;verticalAlign=middle;fontSize=14;" parent="1" vertex="1">
          <mxGeometry x="780" y="540" width="40" height="40" as="geometry" />
        </mxCell>
        <mxCell id="MQ4e4x_bBQmEIr4lHEFC-37" style="edgeStyle=orthogonalEdgeStyle;rounded=0;orthogonalLoop=1;jettySize=auto;html=1;fontSize=14;labelPosition=center;verticalLabelPosition=middle;align=center;verticalAlign=middle;" parent="1" source="MQ4e4x_bBQmEIr4lHEFC-38" target="MQ4e4x_bBQmEIr4lHEFC-39" edge="1">
          <mxGeometry relative="1" as="geometry" />
        </mxCell>
        <mxCell id="MQ4e4x_bBQmEIr4lHEFC-38" value="&lt;b style=&quot;font-size: 14px;&quot;&gt;DP&lt;br style=&quot;font-size: 14px;&quot;&gt;&lt;/b&gt;" style="whiteSpace=wrap;html=1;aspect=fixed;labelPosition=center;verticalLabelPosition=middle;align=center;verticalAlign=middle;fontSize=14;" parent="1" vertex="1">
          <mxGeometry x="1038" y="600" width="40" height="40" as="geometry" />
        </mxCell>
        <mxCell id="MQ4e4x_bBQmEIr4lHEFC-39" value="P19" style="ellipse;whiteSpace=wrap;html=1;aspect=fixed;labelPosition=center;verticalLabelPosition=middle;align=center;verticalAlign=middle;fontSize=14;" parent="1" vertex="1">
          <mxGeometry x="1098" y="600" width="40" height="40" as="geometry" />
        </mxCell>
        <mxCell id="MQ4e4x_bBQmEIr4lHEFC-40" style="edgeStyle=orthogonalEdgeStyle;rounded=0;orthogonalLoop=1;jettySize=auto;html=1;entryX=0;entryY=0.5;entryDx=0;entryDy=0;" parent="1" source="MQ4e4x_bBQmEIr4lHEFC-41" target="MQ4e4x_bBQmEIr4lHEFC-38" edge="1">
          <mxGeometry relative="1" as="geometry" />
        </mxCell>
        <mxCell id="MQ4e4x_bBQmEIr4lHEFC-41" value="P17" style="ellipse;whiteSpace=wrap;html=1;aspect=fixed;labelPosition=center;verticalLabelPosition=middle;align=center;verticalAlign=middle;fontSize=14;" parent="1" vertex="1">
          <mxGeometry x="968" y="600" width="40" height="40" as="geometry" />
        </mxCell>
        <mxCell id="MQ4e4x_bBQmEIr4lHEFC-42" value="P18" style="ellipse;whiteSpace=wrap;html=1;aspect=fixed;labelPosition=center;verticalLabelPosition=middle;align=center;verticalAlign=middle;fontSize=14;" parent="1" vertex="1">
          <mxGeometry x="968" y="660" width="40" height="40" as="geometry" />
        </mxCell>
        <mxCell id="MQ4e4x_bBQmEIr4lHEFC-43" value="" style="endArrow=classic;html=1;rounded=0;exitX=1;exitY=0;exitDx=0;exitDy=0;entryX=0;entryY=1;entryDx=0;entryDy=0;" parent="1" source="MQ4e4x_bBQmEIr4lHEFC-21" target="MQ4e4x_bBQmEIr4lHEFC-24" edge="1">
          <mxGeometry width="50" height="50" relative="1" as="geometry">
            <mxPoint x="648" y="680" as="sourcePoint" />
            <mxPoint x="698" y="630" as="targetPoint" />
          </mxGeometry>
        </mxCell>
        <mxCell id="MQ4e4x_bBQmEIr4lHEFC-44" value="" style="endArrow=classic;html=1;rounded=0;exitX=1;exitY=0.5;exitDx=0;exitDy=0;entryX=0;entryY=0.5;entryDx=0;entryDy=0;" parent="1" source="MQ4e4x_bBQmEIr4lHEFC-21" target="MQ4e4x_bBQmEIr4lHEFC-22" edge="1">
          <mxGeometry width="50" height="50" relative="1" as="geometry">
            <mxPoint x="628" y="790" as="sourcePoint" />
            <mxPoint x="678" y="740" as="targetPoint" />
          </mxGeometry>
        </mxCell>
        <mxCell id="MQ4e4x_bBQmEIr4lHEFC-45" value="" style="endArrow=classic;html=1;rounded=0;exitX=1;exitY=0;exitDx=0;exitDy=0;entryX=0;entryY=1;entryDx=0;entryDy=0;" parent="1" source="MQ4e4x_bBQmEIr4lHEFC-42" target="MQ4e4x_bBQmEIr4lHEFC-38" edge="1">
          <mxGeometry width="50" height="50" relative="1" as="geometry">
            <mxPoint x="1038" y="720" as="sourcePoint" />
            <mxPoint x="1088" y="670" as="targetPoint" />
          </mxGeometry>
        </mxCell>
        <mxCell id="MQ4e4x_bBQmEIr4lHEFC-46" value="" style="endArrow=classic;html=1;rounded=0;exitX=1;exitY=0.5;exitDx=0;exitDy=0;entryX=0;entryY=0.5;entryDx=0;entryDy=0;" parent="1" source="MQ4e4x_bBQmEIr4lHEFC-22" target="MQ4e4x_bBQmEIr4lHEFC-28" edge="1">
          <mxGeometry width="50" height="50" relative="1" as="geometry">
            <mxPoint x="678" y="710" as="sourcePoint" />
            <mxPoint x="728" y="660" as="targetPoint" />
          </mxGeometry>
        </mxCell>
        <mxCell id="MQ4e4x_bBQmEIr4lHEFC-47" value="" style="endArrow=classic;html=1;rounded=0;exitX=0.75;exitY=1;exitDx=0;exitDy=0;entryX=0;entryY=0;entryDx=0;entryDy=0;" parent="1" source="MQ4e4x_bBQmEIr4lHEFC-36" target="MQ4e4x_bBQmEIr4lHEFC-28" edge="1">
          <mxGeometry width="50" height="50" relative="1" as="geometry">
            <mxPoint x="918" y="540" as="sourcePoint" />
            <mxPoint x="968" y="490" as="targetPoint" />
          </mxGeometry>
        </mxCell>
        <mxCell id="MQ4e4x_bBQmEIr4lHEFC-48" value="" style="endArrow=classic;html=1;rounded=0;exitX=0.5;exitY=1;exitDx=0;exitDy=0;entryX=0;entryY=0;entryDx=0;entryDy=0;" parent="1" source="MQ4e4x_bBQmEIr4lHEFC-36" target="MQ4e4x_bBQmEIr4lHEFC-30" edge="1">
          <mxGeometry width="50" height="50" relative="1" as="geometry">
            <mxPoint x="898" y="540" as="sourcePoint" />
            <mxPoint x="948" y="490" as="targetPoint" />
          </mxGeometry>
        </mxCell>
        <mxCell id="qYDCDcK0NjYoB_J0EcXu-1" value="&lt;b style=&quot;font-size: 14px;&quot;&gt;DOR&lt;/b&gt;" style="html=1;aspect=fixed;labelPosition=center;verticalLabelPosition=middle;align=center;verticalAlign=middle;textDirection=ltr;strokeColor=#006EAF;strokeWidth=2;fontSize=14;" parent="1" vertex="1">
          <mxGeometry x="90" y="480" width="40" height="40" as="geometry" />
        </mxCell>
        <mxCell id="qYDCDcK0NjYoB_J0EcXu-2" value="" style="edgeStyle=orthogonalEdgeStyle;rounded=0;orthogonalLoop=1;jettySize=auto;html=1;strokeColor=#006EAF;labelPosition=center;verticalLabelPosition=middle;align=center;verticalAlign=middle;fontSize=14;" parent="1" source="qYDCDcK0NjYoB_J0EcXu-3" target="qYDCDcK0NjYoB_J0EcXu-8" edge="1">
          <mxGeometry relative="1" as="geometry" />
        </mxCell>
        <mxCell id="qYDCDcK0NjYoB_J0EcXu-3" value="&lt;b style=&quot;font-size: 14px;&quot;&gt;SD&lt;/b&gt;" style="whiteSpace=wrap;html=1;aspect=fixed;labelPosition=center;verticalLabelPosition=middle;align=center;verticalAlign=middle;strokeColor=#006EAF;strokeWidth=2;fontSize=14;" parent="1" vertex="1">
          <mxGeometry x="330" y="480" width="40" height="40" as="geometry" />
        </mxCell>
        <mxCell id="qYDCDcK0NjYoB_J0EcXu-4" value="" style="edgeStyle=orthogonalEdgeStyle;rounded=0;orthogonalLoop=1;jettySize=auto;html=1;strokeColor=#006EAF;labelPosition=center;verticalLabelPosition=middle;align=center;verticalAlign=middle;fontSize=14;" parent="1" source="qYDCDcK0NjYoB_J0EcXu-5" target="qYDCDcK0NjYoB_J0EcXu-9" edge="1">
          <mxGeometry relative="1" as="geometry" />
        </mxCell>
        <mxCell id="qYDCDcK0NjYoB_J0EcXu-5" value="&lt;b style=&quot;font-size: 14px;&quot;&gt;PDL&lt;/b&gt;" style="html=1;aspect=fixed;labelPosition=center;verticalLabelPosition=middle;align=center;verticalAlign=middle;strokeColor=#006EAF;strokeWidth=2;fontSize=14;" parent="1" vertex="1">
          <mxGeometry x="210" y="480" width="40" height="40" as="geometry" />
        </mxCell>
        <mxCell id="qYDCDcK0NjYoB_J0EcXu-6" value="" style="edgeStyle=orthogonalEdgeStyle;rounded=0;orthogonalLoop=1;jettySize=auto;html=1;strokeColor=#006EAF;labelPosition=center;verticalLabelPosition=middle;align=center;verticalAlign=middle;fontSize=14;" parent="1" source="qYDCDcK0NjYoB_J0EcXu-7" target="qYDCDcK0NjYoB_J0EcXu-1" edge="1">
          <mxGeometry relative="1" as="geometry" />
        </mxCell>
        <mxCell id="qYDCDcK0NjYoB_J0EcXu-7" value="P3" style="ellipse;whiteSpace=wrap;html=1;aspect=fixed;labelPosition=center;verticalLabelPosition=middle;align=center;verticalAlign=middle;strokeColor=#006EAF;strokeWidth=2;fontSize=14;" parent="1" vertex="1">
          <mxGeometry x="30" y="480" width="40" height="40" as="geometry" />
        </mxCell>
        <mxCell id="qYDCDcK0NjYoB_J0EcXu-8" value="P6" style="ellipse;whiteSpace=wrap;html=1;aspect=fixed;labelPosition=center;verticalLabelPosition=middle;align=center;verticalAlign=middle;strokeColor=#006EAF;strokeWidth=2;fontSize=14;" parent="1" vertex="1">
          <mxGeometry x="392" y="480" width="40" height="40" as="geometry" />
        </mxCell>
        <mxCell id="qYDCDcK0NjYoB_J0EcXu-9" value="P5" style="ellipse;whiteSpace=wrap;html=1;aspect=fixed;labelPosition=center;verticalLabelPosition=middle;align=center;verticalAlign=middle;strokeColor=#006EAF;strokeWidth=2;fontSize=14;" parent="1" vertex="1">
          <mxGeometry x="270" y="480" width="40" height="40" as="geometry" />
        </mxCell>
        <mxCell id="qYDCDcK0NjYoB_J0EcXu-10" value="" style="edgeStyle=orthogonalEdgeStyle;rounded=0;orthogonalLoop=1;jettySize=auto;html=1;strokeColor=#006EAF;labelPosition=center;verticalLabelPosition=middle;align=center;verticalAlign=middle;fontSize=14;" parent="1" source="qYDCDcK0NjYoB_J0EcXu-11" target="qYDCDcK0NjYoB_J0EcXu-5" edge="1">
          <mxGeometry relative="1" as="geometry" />
        </mxCell>
        <mxCell id="qYDCDcK0NjYoB_J0EcXu-11" value="P4" style="ellipse;whiteSpace=wrap;html=1;aspect=fixed;labelPosition=center;verticalLabelPosition=middle;align=center;verticalAlign=middle;strokeColor=#006EAF;strokeWidth=2;fontSize=14;" parent="1" vertex="1">
          <mxGeometry x="150" y="480" width="40" height="40" as="geometry" />
        </mxCell>
        <mxCell id="qYDCDcK0NjYoB_J0EcXu-12" value="" style="endArrow=classic;html=1;rounded=0;entryX=0;entryY=0.5;entryDx=0;entryDy=0;exitX=1;exitY=0.5;exitDx=0;exitDy=0;strokeColor=#006EAF;labelPosition=center;verticalLabelPosition=middle;align=center;verticalAlign=middle;fontSize=14;" parent="1" source="qYDCDcK0NjYoB_J0EcXu-1" target="qYDCDcK0NjYoB_J0EcXu-11" edge="1">
          <mxGeometry width="50" height="50" relative="1" as="geometry">
            <mxPoint x="130" y="520" as="sourcePoint" />
            <mxPoint x="180" y="470" as="targetPoint" />
          </mxGeometry>
        </mxCell>
        <mxCell id="qYDCDcK0NjYoB_J0EcXu-13" value="" style="endArrow=classic;html=1;rounded=0;entryX=0;entryY=0.5;entryDx=0;entryDy=0;strokeColor=#006EAF;labelPosition=center;verticalLabelPosition=middle;align=center;verticalAlign=middle;fontSize=14;exitX=1;exitY=0.5;exitDx=0;exitDy=0;" parent="1" source="qYDCDcK0NjYoB_J0EcXu-9" target="qYDCDcK0NjYoB_J0EcXu-3" edge="1">
          <mxGeometry width="50" height="50" relative="1" as="geometry">
            <mxPoint x="430" y="590" as="sourcePoint" />
            <mxPoint x="480" y="540" as="targetPoint" />
          </mxGeometry>
        </mxCell>
        <mxCell id="qYDCDcK0NjYoB_J0EcXu-14" value="" style="edgeStyle=orthogonalEdgeStyle;rounded=0;orthogonalLoop=1;jettySize=auto;html=1;strokeColor=#006EAF;labelPosition=center;verticalLabelPosition=middle;align=center;verticalAlign=middle;fontSize=14;exitX=0.5;exitY=1;exitDx=0;exitDy=0;entryX=0.5;entryY=0;entryDx=0;entryDy=0;" parent="1" source="qYDCDcK0NjYoB_J0EcXu-8" target="MQ4e4x_bBQmEIr4lHEFC-16" edge="1">
          <mxGeometry relative="1" as="geometry">
            <mxPoint x="413" y="530" as="sourcePoint" />
            <mxPoint x="530" y="570" as="targetPoint" />
            <Array as="points">
              <mxPoint x="420" y="520" />
              <mxPoint x="420" y="570" />
              <mxPoint x="380" y="570" />
            </Array>
          </mxGeometry>
        </mxCell>
        <mxCell id="qYDCDcK0NjYoB_J0EcXu-15" value="" style="edgeStyle=orthogonalEdgeStyle;rounded=0;orthogonalLoop=1;jettySize=auto;html=1;strokeColor=#006EAF;labelPosition=center;verticalLabelPosition=middle;align=center;verticalAlign=middle;fontSize=14;exitX=0.5;exitY=0;exitDx=0;exitDy=0;entryX=0;entryY=0.5;entryDx=0;entryDy=0;" parent="1" source="MQ4e4x_bBQmEIr4lHEFC-12" target="qYDCDcK0NjYoB_J0EcXu-7" edge="1">
          <mxGeometry relative="1" as="geometry">
            <mxPoint x="381" y="540" as="sourcePoint" />
            <mxPoint x="336" y="620" as="targetPoint" />
          </mxGeometry>
        </mxCell>
        <mxCell id="JefjOuCNF3crx7YnBMkL-1" value="" style="edgeStyle=orthogonalEdgeStyle;rounded=0;orthogonalLoop=1;jettySize=auto;html=1;strokeColor=#009900;strokeWidth=1;labelPosition=center;verticalLabelPosition=middle;align=center;verticalAlign=middle;fontSize=14;" edge="1" parent="1" source="JefjOuCNF3crx7YnBMkL-2" target="JefjOuCNF3crx7YnBMkL-9">
          <mxGeometry relative="1" as="geometry" />
        </mxCell>
        <mxCell id="JefjOuCNF3crx7YnBMkL-2" value="P9" style="ellipse;whiteSpace=wrap;html=1;aspect=fixed;labelPosition=center;verticalLabelPosition=middle;align=center;verticalAlign=middle;strokeColor=#009900;strokeWidth=2;fontSize=14;" vertex="1" parent="1">
          <mxGeometry x="472" y="480" width="40" height="40" as="geometry" />
        </mxCell>
        <mxCell id="JefjOuCNF3crx7YnBMkL-3" value="P13" style="ellipse;whiteSpace=wrap;html=1;aspect=fixed;labelPosition=center;verticalLabelPosition=middle;align=center;verticalAlign=middle;strokeColor=#009900;strokeWidth=2;fontSize=14;" vertex="1" parent="1">
          <mxGeometry x="957" y="480" width="40" height="40" as="geometry" />
        </mxCell>
        <mxCell id="JefjOuCNF3crx7YnBMkL-4" value="P14" style="ellipse;whiteSpace=wrap;html=1;aspect=fixed;labelPosition=center;verticalLabelPosition=middle;align=center;verticalAlign=middle;strokeColor=#009900;strokeWidth=2;fontSize=14;" vertex="1" parent="1">
          <mxGeometry x="1082" y="480" width="40" height="40" as="geometry" />
        </mxCell>
        <mxCell id="JefjOuCNF3crx7YnBMkL-5" value="" style="edgeStyle=orthogonalEdgeStyle;rounded=0;orthogonalLoop=1;jettySize=auto;html=1;strokeColor=#009900;strokeWidth=1;labelPosition=center;verticalLabelPosition=middle;align=center;verticalAlign=middle;fontSize=14;" edge="1" parent="1" source="JefjOuCNF3crx7YnBMkL-6" target="JefjOuCNF3crx7YnBMkL-10">
          <mxGeometry relative="1" as="geometry" />
        </mxCell>
        <mxCell id="JefjOuCNF3crx7YnBMkL-6" value="P10" style="ellipse;whiteSpace=wrap;html=1;aspect=fixed;labelPosition=center;verticalLabelPosition=middle;align=center;verticalAlign=middle;strokeColor=#009900;strokeWidth=2;fontSize=14;" vertex="1" parent="1">
          <mxGeometry x="592" y="480" width="40" height="40" as="geometry" />
        </mxCell>
        <mxCell id="JefjOuCNF3crx7YnBMkL-7" value="P11" style="ellipse;whiteSpace=wrap;html=1;aspect=fixed;labelPosition=center;verticalLabelPosition=middle;align=center;verticalAlign=middle;strokeColor=#009900;strokeWidth=2;fontSize=14;" vertex="1" parent="1">
          <mxGeometry x="712" y="480" width="40" height="40" as="geometry" />
        </mxCell>
        <mxCell id="JefjOuCNF3crx7YnBMkL-8" value="P12" style="ellipse;whiteSpace=wrap;html=1;aspect=fixed;labelPosition=center;verticalLabelPosition=middle;align=center;verticalAlign=middle;strokeColor=#009900;strokeWidth=2;fontSize=14;" vertex="1" parent="1">
          <mxGeometry x="832" y="480" width="40" height="40" as="geometry" />
        </mxCell>
        <mxCell id="JefjOuCNF3crx7YnBMkL-9" value="&lt;b style=&quot;font-size: 14px;&quot;&gt;PAFH&lt;/b&gt;" style="html=1;aspect=fixed;labelPosition=center;verticalLabelPosition=middle;align=center;verticalAlign=middle;strokeColor=#009900;strokeWidth=2;fontSize=14;" vertex="1" parent="1">
          <mxGeometry x="532" y="480" width="40" height="40" as="geometry" />
        </mxCell>
        <mxCell id="JefjOuCNF3crx7YnBMkL-10" value="&lt;b style=&quot;font-size: 14px;&quot;&gt;PIA&lt;/b&gt;" style="whiteSpace=wrap;html=1;aspect=fixed;labelPosition=center;verticalLabelPosition=middle;align=center;verticalAlign=middle;strokeColor=#009900;strokeWidth=2;fontSize=14;" vertex="1" parent="1">
          <mxGeometry x="652" y="480" width="40" height="40" as="geometry" />
        </mxCell>
        <mxCell id="JefjOuCNF3crx7YnBMkL-11" value="&lt;b style=&quot;font-size: 14px;&quot;&gt;PT&lt;/b&gt;" style="whiteSpace=wrap;html=1;aspect=fixed;labelPosition=center;verticalLabelPosition=middle;align=center;verticalAlign=middle;strokeColor=#009900;strokeWidth=2;fontSize=14;" vertex="1" parent="1">
          <mxGeometry x="772" y="480" width="40" height="40" as="geometry" />
        </mxCell>
        <mxCell id="JefjOuCNF3crx7YnBMkL-12" value="" style="edgeStyle=orthogonalEdgeStyle;rounded=0;orthogonalLoop=1;jettySize=auto;html=1;strokeColor=#009900;strokeWidth=1;labelPosition=center;verticalLabelPosition=middle;align=center;verticalAlign=middle;fontSize=14;" edge="1" parent="1" source="JefjOuCNF3crx7YnBMkL-13" target="JefjOuCNF3crx7YnBMkL-3">
          <mxGeometry relative="1" as="geometry" />
        </mxCell>
        <mxCell id="JefjOuCNF3crx7YnBMkL-13" value="&lt;b style=&quot;font-size: 14px;&quot;&gt;VRT&lt;/b&gt;" style="html=1;aspect=fixed;labelPosition=center;verticalLabelPosition=middle;align=center;verticalAlign=middle;strokeColor=#009900;strokeWidth=2;fontSize=14;" vertex="1" parent="1">
          <mxGeometry x="892" y="480" width="40" height="40" as="geometry" />
        </mxCell>
        <mxCell id="JefjOuCNF3crx7YnBMkL-14" style="edgeStyle=orthogonalEdgeStyle;rounded=0;orthogonalLoop=1;jettySize=auto;html=1;entryX=0;entryY=0.5;entryDx=0;entryDy=0;strokeColor=#009900;strokeWidth=1;labelPosition=center;verticalLabelPosition=middle;align=center;verticalAlign=middle;fontSize=14;" edge="1" parent="1" source="JefjOuCNF3crx7YnBMkL-15" target="JefjOuCNF3crx7YnBMkL-4">
          <mxGeometry relative="1" as="geometry">
            <mxPoint x="1282" y="420" as="targetPoint" />
          </mxGeometry>
        </mxCell>
        <mxCell id="JefjOuCNF3crx7YnBMkL-15" value="&lt;b style=&quot;font-size: 14px;&quot;&gt;TPB&lt;/b&gt;" style="html=1;aspect=fixed;labelPosition=center;verticalLabelPosition=middle;align=center;verticalAlign=middle;strokeColor=#009900;strokeWidth=2;fontSize=14;" vertex="1" parent="1">
          <mxGeometry x="1022" y="480" width="40" height="40" as="geometry" />
        </mxCell>
        <mxCell id="JefjOuCNF3crx7YnBMkL-16" value="" style="endArrow=classic;html=1;rounded=0;exitX=1;exitY=0.5;exitDx=0;exitDy=0;entryX=0;entryY=0.5;entryDx=0;entryDy=0;strokeColor=#009900;strokeWidth=1;labelPosition=center;verticalLabelPosition=middle;align=center;verticalAlign=middle;fontSize=14;" edge="1" parent="1" source="JefjOuCNF3crx7YnBMkL-9" target="JefjOuCNF3crx7YnBMkL-6">
          <mxGeometry width="50" height="50" relative="1" as="geometry">
            <mxPoint x="702" y="560" as="sourcePoint" />
            <mxPoint x="748" y="606" as="targetPoint" />
          </mxGeometry>
        </mxCell>
        <mxCell id="JefjOuCNF3crx7YnBMkL-17" value="" style="endArrow=classic;html=1;rounded=0;exitX=1;exitY=0.5;exitDx=0;exitDy=0;entryX=0;entryY=0.5;entryDx=0;entryDy=0;strokeColor=#009900;strokeWidth=1;labelPosition=center;verticalLabelPosition=middle;align=center;verticalAlign=middle;fontSize=14;" edge="1" parent="1" source="JefjOuCNF3crx7YnBMkL-10" target="JefjOuCNF3crx7YnBMkL-7">
          <mxGeometry width="50" height="50" relative="1" as="geometry">
            <mxPoint x="772" y="470" as="sourcePoint" />
            <mxPoint x="822" y="420" as="targetPoint" />
          </mxGeometry>
        </mxCell>
        <mxCell id="JefjOuCNF3crx7YnBMkL-18" value="" style="endArrow=classic;html=1;rounded=0;entryX=0;entryY=0.5;entryDx=0;entryDy=0;exitX=1;exitY=0.5;exitDx=0;exitDy=0;strokeColor=#009900;strokeWidth=1;labelPosition=center;verticalLabelPosition=middle;align=center;verticalAlign=middle;fontSize=14;" edge="1" parent="1" source="JefjOuCNF3crx7YnBMkL-7" target="JefjOuCNF3crx7YnBMkL-11">
          <mxGeometry width="50" height="50" relative="1" as="geometry">
            <mxPoint x="852" y="490" as="sourcePoint" />
            <mxPoint x="902" y="440" as="targetPoint" />
          </mxGeometry>
        </mxCell>
        <mxCell id="JefjOuCNF3crx7YnBMkL-19" value="" style="endArrow=classic;html=1;rounded=0;exitX=1;exitY=0.5;exitDx=0;exitDy=0;strokeColor=#009900;strokeWidth=1;labelPosition=center;verticalLabelPosition=middle;align=center;verticalAlign=middle;fontSize=14;entryX=0;entryY=0.5;entryDx=0;entryDy=0;" edge="1" parent="1" source="JefjOuCNF3crx7YnBMkL-11" target="JefjOuCNF3crx7YnBMkL-8">
          <mxGeometry width="50" height="50" relative="1" as="geometry">
            <mxPoint x="942" y="550" as="sourcePoint" />
            <mxPoint x="832" y="500" as="targetPoint" />
            <Array as="points" />
          </mxGeometry>
        </mxCell>
        <mxCell id="JefjOuCNF3crx7YnBMkL-20" value="" style="endArrow=classic;html=1;rounded=0;exitX=1;exitY=0.5;exitDx=0;exitDy=0;entryX=0;entryY=0.5;entryDx=0;entryDy=0;strokeColor=#009900;strokeWidth=1;labelPosition=center;verticalLabelPosition=middle;align=center;verticalAlign=middle;fontSize=14;" edge="1" parent="1" source="JefjOuCNF3crx7YnBMkL-8" target="JefjOuCNF3crx7YnBMkL-13">
          <mxGeometry width="50" height="50" relative="1" as="geometry">
            <mxPoint x="1042" y="490" as="sourcePoint" />
            <mxPoint x="1092" y="440" as="targetPoint" />
          </mxGeometry>
        </mxCell>
        <mxCell id="JefjOuCNF3crx7YnBMkL-21" value="" style="endArrow=classic;html=1;rounded=0;exitX=1;exitY=0.5;exitDx=0;exitDy=0;entryX=0;entryY=0.5;entryDx=0;entryDy=0;strokeColor=#009900;strokeWidth=1;labelPosition=center;verticalLabelPosition=middle;align=center;verticalAlign=middle;fontSize=14;" edge="1" parent="1" source="JefjOuCNF3crx7YnBMkL-3" target="JefjOuCNF3crx7YnBMkL-15">
          <mxGeometry width="50" height="50" relative="1" as="geometry">
            <mxPoint x="1102" y="426" as="sourcePoint" />
            <mxPoint x="1138" y="390" as="targetPoint" />
          </mxGeometry>
        </mxCell>
      </root>
    </mxGraphModel>
  </diagram>
  <diagram id="2Xpjjke1RNZLPn5LTf9K" name="Pagina-2">
    <mxGraphModel dx="1026" dy="688" grid="1" gridSize="10" guides="1" tooltips="1" connect="1" arrows="1" fold="1" page="1" pageScale="1" pageWidth="1169" pageHeight="1654" math="0" shadow="0">
      <root>
        <mxCell id="0" />
        <mxCell id="1" parent="0" />
        <mxCell id="Ud1pCjvGF59cBaB2EH2d-1" style="edgeStyle=orthogonalEdgeStyle;rounded=0;orthogonalLoop=1;jettySize=auto;html=1;entryX=0;entryY=0.5;entryDx=0;entryDy=0;" parent="1" source="Ud1pCjvGF59cBaB2EH2d-2" target="Ud1pCjvGF59cBaB2EH2d-8" edge="1">
          <mxGeometry relative="1" as="geometry" />
        </mxCell>
        <mxCell id="Ud1pCjvGF59cBaB2EH2d-2" value="&lt;b&gt;DOR&lt;/b&gt;" style="html=1;aspect=fixed;labelPosition=center;verticalLabelPosition=bottom;align=center;verticalAlign=top;textDirection=ltr;" parent="1" vertex="1">
          <mxGeometry x="70" y="320" width="40" height="40" as="geometry" />
        </mxCell>
        <mxCell id="Ud1pCjvGF59cBaB2EH2d-3" value="" style="edgeStyle=orthogonalEdgeStyle;rounded=0;orthogonalLoop=1;jettySize=auto;html=1;" parent="1" source="Ud1pCjvGF59cBaB2EH2d-4" target="Ud1pCjvGF59cBaB2EH2d-11" edge="1">
          <mxGeometry relative="1" as="geometry" />
        </mxCell>
        <mxCell id="Ud1pCjvGF59cBaB2EH2d-4" value="&lt;b&gt;SD&lt;/b&gt;" style="whiteSpace=wrap;html=1;aspect=fixed;labelPosition=center;verticalLabelPosition=bottom;align=center;verticalAlign=top;" parent="1" vertex="1">
          <mxGeometry x="350" y="320" width="40" height="40" as="geometry" />
        </mxCell>
        <mxCell id="Ud1pCjvGF59cBaB2EH2d-5" value="" style="edgeStyle=orthogonalEdgeStyle;rounded=0;orthogonalLoop=1;jettySize=auto;html=1;" parent="1" source="Ud1pCjvGF59cBaB2EH2d-6" target="Ud1pCjvGF59cBaB2EH2d-12" edge="1">
          <mxGeometry relative="1" as="geometry" />
        </mxCell>
        <mxCell id="Ud1pCjvGF59cBaB2EH2d-6" value="&lt;b&gt;PDL&lt;/b&gt;" style="html=1;aspect=fixed;labelPosition=center;verticalLabelPosition=bottom;align=center;verticalAlign=top;" parent="1" vertex="1">
          <mxGeometry x="220" y="390" width="40" height="40" as="geometry" />
        </mxCell>
        <mxCell id="Ud1pCjvGF59cBaB2EH2d-7" style="edgeStyle=orthogonalEdgeStyle;rounded=0;orthogonalLoop=1;jettySize=auto;html=1;" parent="1" source="Ud1pCjvGF59cBaB2EH2d-8" target="Ud1pCjvGF59cBaB2EH2d-4" edge="1">
          <mxGeometry relative="1" as="geometry" />
        </mxCell>
        <mxCell id="Ud1pCjvGF59cBaB2EH2d-8" value="P1" style="ellipse;whiteSpace=wrap;html=1;aspect=fixed;labelPosition=center;verticalLabelPosition=bottom;align=center;verticalAlign=top;" parent="1" vertex="1">
          <mxGeometry x="140" y="320" width="40" height="40" as="geometry" />
        </mxCell>
        <mxCell id="Ud1pCjvGF59cBaB2EH2d-9" value="" style="edgeStyle=orthogonalEdgeStyle;rounded=0;orthogonalLoop=1;jettySize=auto;html=1;" parent="1" source="Ud1pCjvGF59cBaB2EH2d-10" target="Ud1pCjvGF59cBaB2EH2d-2" edge="1">
          <mxGeometry relative="1" as="geometry" />
        </mxCell>
        <mxCell id="Ud1pCjvGF59cBaB2EH2d-10" value="P0" style="ellipse;whiteSpace=wrap;html=1;aspect=fixed;labelPosition=center;verticalLabelPosition=bottom;align=center;verticalAlign=top;" parent="1" vertex="1">
          <mxGeometry y="320" width="40" height="40" as="geometry" />
        </mxCell>
        <mxCell id="Ud1pCjvGF59cBaB2EH2d-11" value="P4" style="ellipse;whiteSpace=wrap;html=1;aspect=fixed;labelPosition=center;verticalLabelPosition=bottom;align=center;verticalAlign=top;" parent="1" vertex="1">
          <mxGeometry x="420" y="320" width="40" height="40" as="geometry" />
        </mxCell>
        <mxCell id="Ud1pCjvGF59cBaB2EH2d-12" value="P3" style="ellipse;whiteSpace=wrap;html=1;aspect=fixed;labelPosition=center;verticalLabelPosition=bottom;align=center;verticalAlign=top;" parent="1" vertex="1">
          <mxGeometry x="290" y="390" width="40" height="40" as="geometry" />
        </mxCell>
        <mxCell id="Ud1pCjvGF59cBaB2EH2d-13" value="" style="edgeStyle=orthogonalEdgeStyle;rounded=0;orthogonalLoop=1;jettySize=auto;html=1;" parent="1" source="Ud1pCjvGF59cBaB2EH2d-14" target="Ud1pCjvGF59cBaB2EH2d-6" edge="1">
          <mxGeometry relative="1" as="geometry" />
        </mxCell>
        <mxCell id="Ud1pCjvGF59cBaB2EH2d-14" value="P2" style="ellipse;whiteSpace=wrap;html=1;aspect=fixed;labelPosition=center;verticalLabelPosition=bottom;align=center;verticalAlign=top;" parent="1" vertex="1">
          <mxGeometry x="140" y="390" width="40" height="40" as="geometry" />
        </mxCell>
        <mxCell id="Ud1pCjvGF59cBaB2EH2d-15" value="" style="endArrow=classic;html=1;rounded=0;entryX=0;entryY=0;entryDx=0;entryDy=0;exitX=1;exitY=1;exitDx=0;exitDy=0;" parent="1" source="Ud1pCjvGF59cBaB2EH2d-2" target="Ud1pCjvGF59cBaB2EH2d-14" edge="1">
          <mxGeometry width="50" height="50" relative="1" as="geometry">
            <mxPoint x="120" y="360" as="sourcePoint" />
            <mxPoint x="170" y="310" as="targetPoint" />
          </mxGeometry>
        </mxCell>
        <mxCell id="Ud1pCjvGF59cBaB2EH2d-16" value="" style="endArrow=classic;html=1;rounded=0;entryX=0;entryY=1;entryDx=0;entryDy=0;" parent="1" source="Ud1pCjvGF59cBaB2EH2d-12" target="Ud1pCjvGF59cBaB2EH2d-4" edge="1">
          <mxGeometry width="50" height="50" relative="1" as="geometry">
            <mxPoint x="420" y="430" as="sourcePoint" />
            <mxPoint x="470" y="380" as="targetPoint" />
          </mxGeometry>
        </mxCell>
      </root>
    </mxGraphModel>
  </diagram>
  <diagram id="e7QfpyPs7MfFIriicE8k" name="Pagina-3">
    <mxGraphModel dx="1026" dy="688" grid="1" gridSize="10" guides="1" tooltips="1" connect="1" arrows="1" fold="1" page="1" pageScale="1" pageWidth="1169" pageHeight="1654" math="0" shadow="0">
      <root>
        <mxCell id="0" />
        <mxCell id="1" parent="0" />
        <mxCell id="4q8AsCD515_tBAwNU1hn-1" value="" style="edgeStyle=orthogonalEdgeStyle;rounded=0;orthogonalLoop=1;jettySize=auto;html=1;" parent="1" source="4q8AsCD515_tBAwNU1hn-2" target="4q8AsCD515_tBAwNU1hn-14" edge="1">
          <mxGeometry relative="1" as="geometry" />
        </mxCell>
        <mxCell id="4q8AsCD515_tBAwNU1hn-2" value="P0" style="ellipse;whiteSpace=wrap;html=1;aspect=fixed;labelPosition=center;verticalLabelPosition=bottom;align=center;verticalAlign=top;" parent="1" vertex="1">
          <mxGeometry x="100" y="280" width="40" height="40" as="geometry" />
        </mxCell>
        <mxCell id="4q8AsCD515_tBAwNU1hn-3" value="P7" style="ellipse;whiteSpace=wrap;html=1;aspect=fixed;labelPosition=center;verticalLabelPosition=bottom;align=center;verticalAlign=top;" parent="1" vertex="1">
          <mxGeometry x="660" y="210" width="40" height="40" as="geometry" />
        </mxCell>
        <mxCell id="4q8AsCD515_tBAwNU1hn-4" value="P6" style="ellipse;whiteSpace=wrap;html=1;aspect=fixed;labelPosition=center;verticalLabelPosition=bottom;align=center;verticalAlign=top;" parent="1" vertex="1">
          <mxGeometry x="660" y="350" width="40" height="40" as="geometry" />
        </mxCell>
        <mxCell id="4q8AsCD515_tBAwNU1hn-5" value="P8" style="ellipse;whiteSpace=wrap;html=1;aspect=fixed;labelPosition=center;verticalLabelPosition=bottom;align=center;verticalAlign=top;" parent="1" vertex="1">
          <mxGeometry x="790" y="280" width="40" height="40" as="geometry" />
        </mxCell>
        <mxCell id="4q8AsCD515_tBAwNU1hn-6" style="edgeStyle=orthogonalEdgeStyle;rounded=0;orthogonalLoop=1;jettySize=auto;html=1;" parent="1" source="4q8AsCD515_tBAwNU1hn-7" target="4q8AsCD515_tBAwNU1hn-18" edge="1">
          <mxGeometry relative="1" as="geometry" />
        </mxCell>
        <mxCell id="4q8AsCD515_tBAwNU1hn-7" value="P2" style="ellipse;whiteSpace=wrap;html=1;aspect=fixed;labelPosition=center;verticalLabelPosition=bottom;align=center;verticalAlign=top;" parent="1" vertex="1">
          <mxGeometry x="240" y="350" width="40" height="40" as="geometry" />
        </mxCell>
        <mxCell id="4q8AsCD515_tBAwNU1hn-8" value="" style="edgeStyle=orthogonalEdgeStyle;rounded=0;orthogonalLoop=1;jettySize=auto;html=1;" parent="1" source="4q8AsCD515_tBAwNU1hn-9" target="4q8AsCD515_tBAwNU1hn-16" edge="1">
          <mxGeometry relative="1" as="geometry" />
        </mxCell>
        <mxCell id="4q8AsCD515_tBAwNU1hn-9" value="P1" style="ellipse;whiteSpace=wrap;html=1;aspect=fixed;labelPosition=center;verticalLabelPosition=bottom;align=center;verticalAlign=top;" parent="1" vertex="1">
          <mxGeometry x="240" y="210" width="40" height="40" as="geometry" />
        </mxCell>
        <mxCell id="4q8AsCD515_tBAwNU1hn-10" style="edgeStyle=orthogonalEdgeStyle;rounded=0;orthogonalLoop=1;jettySize=auto;html=1;" parent="1" source="4q8AsCD515_tBAwNU1hn-11" target="4q8AsCD515_tBAwNU1hn-20" edge="1">
          <mxGeometry relative="1" as="geometry" />
        </mxCell>
        <mxCell id="4q8AsCD515_tBAwNU1hn-11" value="P3" style="ellipse;whiteSpace=wrap;html=1;aspect=fixed;labelPosition=center;verticalLabelPosition=bottom;align=center;verticalAlign=top;" parent="1" vertex="1">
          <mxGeometry x="460" y="210" width="40" height="40" as="geometry" />
        </mxCell>
        <mxCell id="4q8AsCD515_tBAwNU1hn-12" value="P4" style="ellipse;whiteSpace=wrap;html=1;aspect=fixed;labelPosition=center;verticalLabelPosition=bottom;align=center;verticalAlign=top;" parent="1" vertex="1">
          <mxGeometry x="390" y="280" width="40" height="40" as="geometry" />
        </mxCell>
        <mxCell id="4q8AsCD515_tBAwNU1hn-13" value="P5" style="ellipse;whiteSpace=wrap;html=1;aspect=fixed;labelPosition=center;verticalLabelPosition=bottom;align=center;verticalAlign=top;" parent="1" vertex="1">
          <mxGeometry x="520" y="280" width="40" height="40" as="geometry" />
        </mxCell>
        <mxCell id="4q8AsCD515_tBAwNU1hn-14" value="&lt;b&gt;PAFH&lt;/b&gt;" style="html=1;aspect=fixed;labelPosition=center;verticalLabelPosition=bottom;align=center;verticalAlign=top;" parent="1" vertex="1">
          <mxGeometry x="180" y="280" width="40" height="40" as="geometry" />
        </mxCell>
        <mxCell id="4q8AsCD515_tBAwNU1hn-15" value="" style="edgeStyle=orthogonalEdgeStyle;rounded=0;orthogonalLoop=1;jettySize=auto;html=1;" parent="1" source="4q8AsCD515_tBAwNU1hn-16" target="4q8AsCD515_tBAwNU1hn-11" edge="1">
          <mxGeometry relative="1" as="geometry" />
        </mxCell>
        <mxCell id="4q8AsCD515_tBAwNU1hn-16" value="&lt;b&gt;PIA&lt;/b&gt;" style="whiteSpace=wrap;html=1;aspect=fixed;labelPosition=center;verticalLabelPosition=bottom;align=center;verticalAlign=top;" parent="1" vertex="1">
          <mxGeometry x="320" y="210" width="40" height="40" as="geometry" />
        </mxCell>
        <mxCell id="4q8AsCD515_tBAwNU1hn-17" style="edgeStyle=orthogonalEdgeStyle;rounded=0;orthogonalLoop=1;jettySize=auto;html=1;entryX=0;entryY=0.5;entryDx=0;entryDy=0;" parent="1" source="4q8AsCD515_tBAwNU1hn-18" target="4q8AsCD515_tBAwNU1hn-4" edge="1">
          <mxGeometry relative="1" as="geometry" />
        </mxCell>
        <mxCell id="4q8AsCD515_tBAwNU1hn-18" value="&lt;b&gt;PT&lt;/b&gt;" style="whiteSpace=wrap;html=1;aspect=fixed;labelPosition=center;verticalLabelPosition=bottom;align=center;verticalAlign=top;" parent="1" vertex="1">
          <mxGeometry x="460" y="350" width="40" height="40" as="geometry" />
        </mxCell>
        <mxCell id="4q8AsCD515_tBAwNU1hn-19" value="" style="edgeStyle=orthogonalEdgeStyle;rounded=0;orthogonalLoop=1;jettySize=auto;html=1;" parent="1" source="4q8AsCD515_tBAwNU1hn-20" target="4q8AsCD515_tBAwNU1hn-3" edge="1">
          <mxGeometry relative="1" as="geometry" />
        </mxCell>
        <mxCell id="4q8AsCD515_tBAwNU1hn-20" value="&lt;b&gt;VRT&lt;/b&gt;" style="html=1;aspect=fixed;labelPosition=center;verticalLabelPosition=bottom;align=center;verticalAlign=top;" parent="1" vertex="1">
          <mxGeometry x="585" y="210" width="40" height="40" as="geometry" />
        </mxCell>
        <mxCell id="4q8AsCD515_tBAwNU1hn-21" style="edgeStyle=orthogonalEdgeStyle;rounded=0;orthogonalLoop=1;jettySize=auto;html=1;entryX=0;entryY=0.5;entryDx=0;entryDy=0;" parent="1" source="4q8AsCD515_tBAwNU1hn-22" target="4q8AsCD515_tBAwNU1hn-5" edge="1">
          <mxGeometry relative="1" as="geometry">
            <mxPoint x="910" y="220" as="targetPoint" />
          </mxGeometry>
        </mxCell>
        <mxCell id="4q8AsCD515_tBAwNU1hn-22" value="&lt;b&gt;TPB&lt;/b&gt;" style="html=1;aspect=fixed;labelPosition=center;verticalLabelPosition=bottom;align=center;verticalAlign=top;" parent="1" vertex="1">
          <mxGeometry x="720" y="280" width="40" height="40" as="geometry" />
        </mxCell>
        <mxCell id="4q8AsCD515_tBAwNU1hn-23" value="" style="endArrow=classic;html=1;rounded=0;exitX=1;exitY=1;exitDx=0;exitDy=0;" parent="1" source="4q8AsCD515_tBAwNU1hn-14" target="4q8AsCD515_tBAwNU1hn-7" edge="1">
          <mxGeometry width="50" height="50" relative="1" as="geometry">
            <mxPoint x="290" y="340" as="sourcePoint" />
            <mxPoint x="340" y="290" as="targetPoint" />
          </mxGeometry>
        </mxCell>
        <mxCell id="4q8AsCD515_tBAwNU1hn-24" value="" style="endArrow=classic;html=1;rounded=0;exitX=1;exitY=0;exitDx=0;exitDy=0;entryX=0;entryY=1;entryDx=0;entryDy=0;" parent="1" source="4q8AsCD515_tBAwNU1hn-14" target="4q8AsCD515_tBAwNU1hn-9" edge="1">
          <mxGeometry width="50" height="50" relative="1" as="geometry">
            <mxPoint x="330" y="360" as="sourcePoint" />
            <mxPoint x="376" y="406" as="targetPoint" />
          </mxGeometry>
        </mxCell>
        <mxCell id="4q8AsCD515_tBAwNU1hn-25" value="" style="endArrow=classic;html=1;rounded=0;exitX=1;exitY=0;exitDx=0;exitDy=0;entryX=0;entryY=1;entryDx=0;entryDy=0;" parent="1" source="4q8AsCD515_tBAwNU1hn-4" target="4q8AsCD515_tBAwNU1hn-22" edge="1">
          <mxGeometry width="50" height="50" relative="1" as="geometry">
            <mxPoint x="800" y="360" as="sourcePoint" />
            <mxPoint x="850" y="310" as="targetPoint" />
          </mxGeometry>
        </mxCell>
        <mxCell id="4q8AsCD515_tBAwNU1hn-26" value="" style="endArrow=classic;html=1;rounded=0;exitX=1;exitY=1;exitDx=0;exitDy=0;entryX=0;entryY=0;entryDx=0;entryDy=0;" parent="1" source="4q8AsCD515_tBAwNU1hn-16" target="4q8AsCD515_tBAwNU1hn-12" edge="1">
          <mxGeometry width="50" height="50" relative="1" as="geometry">
            <mxPoint x="400" y="270" as="sourcePoint" />
            <mxPoint x="450" y="220" as="targetPoint" />
          </mxGeometry>
        </mxCell>
        <mxCell id="4q8AsCD515_tBAwNU1hn-27" value="" style="endArrow=classic;html=1;rounded=0;entryX=0;entryY=0;entryDx=0;entryDy=0;exitX=1;exitY=1;exitDx=0;exitDy=0;" parent="1" source="4q8AsCD515_tBAwNU1hn-12" target="4q8AsCD515_tBAwNU1hn-18" edge="1">
          <mxGeometry width="50" height="50" relative="1" as="geometry">
            <mxPoint x="480" y="290" as="sourcePoint" />
            <mxPoint x="530" y="240" as="targetPoint" />
          </mxGeometry>
        </mxCell>
        <mxCell id="4q8AsCD515_tBAwNU1hn-28" value="" style="endArrow=classic;html=1;rounded=0;exitX=1;exitY=0;exitDx=0;exitDy=0;entryX=0;entryY=1;entryDx=0;entryDy=0;" parent="1" source="4q8AsCD515_tBAwNU1hn-18" target="4q8AsCD515_tBAwNU1hn-13" edge="1">
          <mxGeometry width="50" height="50" relative="1" as="geometry">
            <mxPoint x="570" y="350" as="sourcePoint" />
            <mxPoint x="620" y="300" as="targetPoint" />
          </mxGeometry>
        </mxCell>
        <mxCell id="4q8AsCD515_tBAwNU1hn-29" value="" style="endArrow=classic;html=1;rounded=0;exitX=1;exitY=0;exitDx=0;exitDy=0;entryX=0;entryY=1;entryDx=0;entryDy=0;" parent="1" source="4q8AsCD515_tBAwNU1hn-13" target="4q8AsCD515_tBAwNU1hn-20" edge="1">
          <mxGeometry width="50" height="50" relative="1" as="geometry">
            <mxPoint x="670" y="290" as="sourcePoint" />
            <mxPoint x="720" y="240" as="targetPoint" />
          </mxGeometry>
        </mxCell>
        <mxCell id="4q8AsCD515_tBAwNU1hn-30" value="" style="endArrow=classic;html=1;rounded=0;exitX=1;exitY=1;exitDx=0;exitDy=0;entryX=0;entryY=0;entryDx=0;entryDy=0;" parent="1" source="4q8AsCD515_tBAwNU1hn-3" target="4q8AsCD515_tBAwNU1hn-22" edge="1">
          <mxGeometry width="50" height="50" relative="1" as="geometry">
            <mxPoint x="730" y="226" as="sourcePoint" />
            <mxPoint x="766" y="190" as="targetPoint" />
          </mxGeometry>
        </mxCell>
      </root>
    </mxGraphModel>
  </diagram>
</mxfile>
